<svg xmlns="http://www.w3.org/2000/svg" xmlns:xlink="http://www.w3.org/1999/xlink" version="1.1" width="1000" height="1000" viewBox="0 0 1000 1000" xml:space="preserve">
<desc>Created with Fabric.js 3.5.0</desc>
<defs>
</defs>
<rect x="0" y="0" width="100%" height="100%" fill="rgba(0,98,37,0)"/>
<g transform="matrix(9.1151 0 0 5.2632 497.5016 497.5032)" id="120142">
<path style="stroke: none; stroke-width: 0; stroke-dasharray: none; stroke-linecap: butt; stroke-dashoffset: 0; stroke-linejoin: miter; stroke-miterlimit: 4; is-custom-font: none; font-file-url: none; fill: rgb(255,255,255); fill-rule: nonzero; opacity: 1;" vector-effect="non-scaling-stroke" transform=" translate(-46.5001, -78.5)" d="M 2.6167 78.5 C 2.6167 57.2341 7.7391 38.064 15.8764 24.2946 C 24.0482 10.4665 34.9664 2.5 46.5001 2.5 C 58.0338 2.5 68.952 10.4665 77.1238 24.2946 C 85.2611 38.064 90.3835 57.2341 90.3835 78.5 C 90.3835 99.7659 85.2611 118.936 77.1238 132.705 C 68.952 146.533 58.0338 154.5 46.5001 154.5 C 34.9664 154.5 24.0482 146.533 15.8764 132.705 C 7.7391 118.936 2.6167 99.7659 2.6167 78.5 Z" stroke-linecap="round"/>
</g>
<g transform="matrix(2.6587 0 0 2.6587 499.1161 623.0384)" id="231320">
<path style="stroke: none; stroke-width: 0; stroke-dasharray: none; stroke-linecap: butt; stroke-dashoffset: 0; stroke-linejoin: miter; stroke-miterlimit: 4; is-custom-font: none; font-file-url: none; fill: rgb(0,98,37); fill-rule: nonzero; opacity: 1;" transform=" translate(-187.6668, -234.2773)" d="M 304.101562 226.527344 L 301.351562 218.777344 C 299.851562 214.53125 295.101562 211.03125 290.851562 211.03125 L 281.101562 211.03125 C 273.851562 190.785156 265.101562 166.289062 262.351562 160.542969 C 258.351562 151.542969 245.601562 147.542969 238.601562 145.542969 C 238.601562 145.542969 226.851562 141.046875 187.601562 141.046875 C 148.351562 141.046875 136.851562 145.542969 136.851562 145.542969 C 128.601562 148.292969 117.101562 152.292969 112.601562 160.792969 C 110.351562 165.039062 101.351562 190.035156 94.101562 211.03125 L 84.601562 211.03125 C 80.351562 211.03125 75.601562 214.53125 74.101562 218.777344 L 71.351562 226.527344 C 69.851562 230.777344 72.101562 234.277344 76.351562 234.277344 L 86.101562 234.277344 C 84.851562 237.773438 84.101562 239.773438 84.101562 239.773438 C 83.351562 241.023438 82.851562 246.773438 82.851562 248.523438 L 82.851562 319.257812 C 82.851562 323.757812 86.601562 327.507812 91.101562 327.507812 L 121.101562 327.507812 C 125.601562 327.507812 129.351562 323.757812 129.351562 319.257812 L 129.351562 304.261719 L 246.101562 304.261719 L 246.101562 319.257812 C 246.101562 323.757812 249.851562 327.507812 254.351562 327.507812 L 284.601562 327.507812 C 289.101562 327.507812 292.851562 323.757812 292.851562 319.257812 L 292.851562 248.523438 C 292.851562 247.023438 292.351562 241.023438 291.601562 239.773438 C 291.601562 239.773438 290.851562 237.773438 289.601562 234.277344 L 299.101562 234.277344 C 303.101562 234.277344 305.351562 230.777344 304.101562 226.527344 Z M 129.351562 270.019531 L 119.351562 263.269531 C 100.851562 261.769531 98.601562 268.269531 94.601562 261.269531 L 94.601562 252.773438 C 94.601562 244.523438 99.351562 244.273438 104.601562 244.273438 C 109.601562 244.273438 119.601562 248.523438 126.351562 251.523438 C 133.601562 254.773438 138.851562 252.023438 141.601562 262.769531 C 141.351562 267.769531 138.601562 270.019531 129.351562 270.019531 Z M 111.851562 214.28125 C 118.101562 188.785156 128.601562 171.039062 130.101562 166.789062 C 131.101562 163.789062 128.601562 158.292969 187.851562 158.292969 C 247.101562 158.292969 243.851562 166.289062 244.101562 166.539062 C 246.851562 172.289062 257.851562 191.035156 263.601562 214.28125 C 263.601562 214.28125 241.351562 217.28125 190.601562 217.28125 C 139.851562 217.28125 111.851562 214.28125 111.851562 214.28125 Z M 234.101562 262.769531 C 245.851562 248.273438 242.101562 254.773438 249.351562 251.523438 C 255.851562 248.523438 266.101562 244.273438 271.101562 244.273438 C 276.351562 244.273438 281.101562 244.523438 281.101562 252.773438 L 281.101562 261.269531 C 277.351562 268.019531 274.101562 262.019531 255.351562 263.769531 L 246.101562 269.769531 C 236.851562 270.019531 230.851562 266.519531 234.101562 262.769531 Z M 234.101562 262.769531" stroke-linecap="round"/>
</g>
<g transform="matrix(1 0 0 1 497.2763 235.3109)" id="700370">
<g style="">
		<g transform="matrix(5.448 0 0 5.448 0.0001 0)" id="54469">
<filter id="SVGID_584" y="-20%" height="140%" x="-20%" width="140%">
	<feGaussianBlur in="SourceAlpha" stdDeviation="0"/>
	<feOffset dx="0" dy="0" result="oBlur"/>
	<feFlood flood-color="rgb(0,0,0)" flood-opacity="1"/>
	<feComposite in2="oBlur" operator="in"/>
	<feMerge>
		<feMergeNode/>
		<feMergeNode in="SourceGraphic"/>
	</feMerge>
</filter>
<polygon style="stroke: rgb(0,0,0); stroke-width: 0; stroke-dasharray: none; stroke-linecap: butt; stroke-dashoffset: 0; stroke-linejoin: miter; stroke-miterlimit: 4; is-custom-font: none; font-file-url: none; fill: rgb(19,181,234); fill-rule: nonzero; opacity: 1;filter: url(#SVGID_584);" points="5.3,-8.3 0.7,-15.5 0.7,-20 -0.7,-20 -0.7,-15.5 -5.3,-8.3 -5.3,8.3 -0.7,15.5 -0.7,20 0.7,20 0.7,15.5 5.3,8.3 "/>
</g>
		<g transform="matrix(5.448 0 0 5.448 71.0965 0)" id="794517">
<filter id="SVGID_585" y="-20%" height="140%" x="-20%" width="140%">
	<feGaussianBlur in="SourceAlpha" stdDeviation="0"/>
	<feOffset dx="0" dy="0" result="oBlur"/>
	<feFlood flood-color="rgb(0,0,0)" flood-opacity="1"/>
	<feComposite in2="oBlur" operator="in"/>
	<feMerge>
		<feMergeNode/>
		<feMergeNode in="SourceGraphic"/>
	</feMerge>
</filter>
<polygon style="stroke: rgb(0,0,0); stroke-width: 0; stroke-dasharray: none; stroke-linecap: butt; stroke-dashoffset: 0; stroke-linejoin: miter; stroke-miterlimit: 4; is-custom-font: none; font-file-url: none; fill: rgb(0,98,37); fill-rule: nonzero; opacity: 1;filter: url(#SVGID_585);" points="5.35,-8.3 0.65,-15.5 0.65,-20 -0.65,-20 -0.65,-15.5 -5.35,-8.3 -5.35,8.3 -0.65,15.5 -0.65,20 0.65,20 0.65,15.5 5.35,8.3 "/>
</g>
		<g transform="matrix(5.448 0 0 5.448 -71.0964 0)" id="787506">
<filter id="SVGID_586" y="-20%" height="140%" x="-20%" width="140%">
	<feGaussianBlur in="SourceAlpha" stdDeviation="0"/>
	<feOffset dx="0" dy="0" result="oBlur"/>
	<feFlood flood-color="rgb(0,0,0)" flood-opacity="1"/>
	<feComposite in2="oBlur" operator="in"/>
	<feMerge>
		<feMergeNode/>
		<feMergeNode in="SourceGraphic"/>
	</feMerge>
</filter>
<polygon style="stroke: rgb(0,0,0); stroke-width: 0; stroke-dasharray: none; stroke-linecap: butt; stroke-dashoffset: 0; stroke-linejoin: miter; stroke-miterlimit: 4; is-custom-font: none; font-file-url: none; fill: rgb(255,210,0); fill-rule: nonzero; opacity: 1;filter: url(#SVGID_586);" points="5.35,-8.3 0.65,-15.5 0.65,-20 -0.75,-20 -0.75,-15.4 -5.35,-8.3 -5.35,8.3 -0.75,15.4 -0.75,20 0.65,20 0.65,15.5 5.35,8.3 "/>
</g>
</g>
</g>
</svg>