<svg xmlns="http://www.w3.org/2000/svg" xmlns:xlink="http://www.w3.org/1999/xlink" version="1.1" width="1000" height="1000" viewBox="0 0 1000 1000" xml:space="preserve">
<desc>Created with Fabric.js 3.5.0</desc>
<defs>
</defs>
<rect x="0" y="0" width="100%" height="100%" fill="rgba(255,255,255,0)"/>
<g transform="matrix(1.6226 0 0 1.6226 317.1015 678.9232)" id="743318">
<path style="stroke: none; stroke-width: 1; stroke-dasharray: none; stroke-linecap: butt; stroke-dashoffset: 0; stroke-linejoin: miter; stroke-miterlimit: 4; is-custom-font: none; font-file-url: none; fill: rgb(63,61,86); fill-rule: nonzero; opacity: 1;" transform=" translate(-331.5755, -562.5276)" d="M 325.10061 540.37506 a 10.22114 10.22114 0 0 0 -10.20953 10.20973 v 23.88568 a 10.22114 10.22114 0 0 0 10.20953 10.20973 h 12.94974 a 10.22114 10.22114 0 0 0 10.20953 -10.20973 V 550.58479 a 10.22114 10.22114 0 0 0 -10.20953 -10.20973 Z" stroke-linecap="round"/>
</g>
<g transform="matrix(1.6226 0 0 1.6226 684.5183 678.9231)" id="168201">
<path style="stroke: none; stroke-width: 1; stroke-dasharray: none; stroke-linecap: butt; stroke-dashoffset: 0; stroke-linejoin: miter; stroke-miterlimit: 4; is-custom-font: none; font-file-url: none; fill: rgb(63,61,86); fill-rule: nonzero; opacity: 1;" transform=" translate(-558.0067, -562.5276)" d="M 564.48154 585.4747 H 551.53181 a 11.01656 11.01656 0 0 1 -11.004 -11.00423 V 550.58479 a 11.01656 11.01656 0 0 1 11.004 -11.00423 h 12.94973 a 11.01655 11.01655 0 0 1 11.004 11.00423 v 23.88568 A 11.01655 11.01655 0 0 1 564.48154 585.4747 Z" stroke-linecap="round"/>
</g>
<g transform="matrix(1.6226 0 0 1.6226 500.1605 630.0586)" id="59674">
<path style="stroke: none; stroke-width: 1; stroke-dasharray: none; stroke-linecap: butt; stroke-dashoffset: 0; stroke-linejoin: miter; stroke-miterlimit: 4; is-custom-font: none; font-file-url: none; fill: rgb(204,204,204); fill-rule: nonzero; opacity: 1;" transform=" translate(-444.3938, -532.4138)" d="M 555.88912 566.35017 H 332.89854 c -10.14844 0 -18.40471 -5.98277 -18.40471 -13.33651 V 510.1338 l 11.06824 -11.65635 H 565.37864 l 8.91519 11.68079 v 42.85542 C 574.29383 560.3674 566.03756 566.35017 555.88912 566.35017 Z" stroke-linecap="round"/>
</g>
<g transform="matrix(1.6226 0 0 1.6226 502.0953 558.8774)" id="170175">
<path style="stroke: none; stroke-width: 1; stroke-dasharray: none; stroke-linecap: butt; stroke-dashoffset: 0; stroke-linejoin: miter; stroke-miterlimit: 4; is-custom-font: none; font-file-url: none; fill: rgb(204,204,204); fill-rule: nonzero; opacity: 1;" transform=" translate(-445.586, -488.5463)" d="M 564.338 519.92883 H 326.83353 L 324.42 482.92 l 1.53584 -3.787 l 8.9276 -21.96927 H 554.6805 l 12.07144 24.94747 Z" stroke-linecap="round"/>
</g>
<g transform="matrix(1.6226 0 0 1.6226 654.222 568.6374)" id="545793">
<polygon style="stroke: none; stroke-width: 1; stroke-dasharray: none; stroke-linecap: butt; stroke-dashoffset: 0; stroke-linejoin: miter; stroke-miterlimit: 4; is-custom-font: none; font-file-url: none; fill: rgb(255,255,255); fill-rule: nonzero; opacity: 1;" points="27.013,-12.37 25.241,15.437 -27.013,15.437 -27.013,-5.22 25.527,-15.437 27.013,-12.37 "/>
</g>
<g transform="matrix(1.6226 0 0 1.6226 349.3307 568.7664)" id="481260">
<polygon style="stroke: none; stroke-width: 1; stroke-dasharray: none; stroke-linecap: butt; stroke-dashoffset: 0; stroke-linejoin: miter; stroke-miterlimit: 4; is-custom-font: none; font-file-url: none; fill: rgb(255,255,255); fill-rule: nonzero; opacity: 1;" points="26.616,-5.2995 26.616,15.3575 -24.852,15.3575 -26.616,-11.6555 -25.114,-15.3575 26.616,-5.2995 "/>
</g>
<g transform="matrix(1.6226 0 0 1.6226 500.7892 445.5198)" id="109595">
<path style="stroke: none; stroke-width: 1; stroke-dasharray: none; stroke-linecap: butt; stroke-dashoffset: 0; stroke-linejoin: miter; stroke-miterlimit: 4; is-custom-font: none; font-file-url: none; fill: rgb(204,204,204); fill-rule: nonzero; opacity: 1;" transform=" translate(-444.7807, -418.6867)" d="M 553.35569 463.51965 h -217.15 l 23.16063 -77.20183 a 15.4952 15.4952 0 0 1 14.76295 -11.09345 l 143.811 -1.36981 a 15.56437 15.56437 0 0 1 15.219 11.6645 Z" stroke-linecap="round"/>
</g>
<g transform="matrix(1.6226 0 0 1.6226 500.7898 457.6556)" id="512203">
<path style="stroke: none; stroke-width: 1; stroke-dasharray: none; stroke-linecap: butt; stroke-dashoffset: 0; stroke-linejoin: miter; stroke-miterlimit: 4; is-custom-font: none; font-file-url: none; fill: rgb(255,255,255); fill-rule: nonzero; opacity: 1;" transform=" translate(-444.7807, -426.1653)" d="M 536.63916 456.21966 L 352.887 454.04078 a 1.48477 1.48477 0 0 1 -1.39631 -1.93785 l 17.61552 -54.96041 a 1.48476 1.48476 0 0 1 1.41392 -1.03159 H 518.31576 a 1.48476 1.48476 0 0 1 1.41372 1.031 l 18.341 57.1393 A 1.48477 1.48477 0 0 1 536.63916 456.21966 Z" stroke-linecap="round"/>
</g>
<g transform="matrix(1.6226 0 0 1.6226 500.7928 376.4592)" id="746626">
<path style="stroke: none; stroke-width: 1; stroke-dasharray: none; stroke-linecap: butt; stroke-dashoffset: 0; stroke-linejoin: miter; stroke-miterlimit: 4; is-custom-font: none; font-file-url: none; fill: rgb(0,98,37); fill-rule: nonzero; opacity: 1;" transform=" translate(-444.7807, -376.1252)" d="M 469.54471 383.27562 h -49.528 c -0.41737 0 -0.79594 -0.41083 -0.98795 -1.07265 a 3.33948 3.33948 0 0 1 0.07889 -2.05917 l 4.08423 -10.32844 c 0.2082 -0.52643 0.54809 -0.84066 0.90906 -0.84066 h 41.35956 c 0.361 0 0.70086 0.31423 0.90906 0.84066 l 4.08423 10.32844 a 3.33948 3.33948 0 0 1 0.07889 2.05917 C 470.34065 382.86479 469.96208 383.27562 469.54471 383.27562 Z" stroke-linecap="round"/>
</g>
<g transform="matrix(1.6226 0 0 1.6226 298.4084 502.799)" id="54003">
<path style="stroke: none; stroke-width: 1; stroke-dasharray: none; stroke-linecap: butt; stroke-dashoffset: 0; stroke-linejoin: miter; stroke-miterlimit: 4; is-custom-font: none; font-file-url: none; fill: rgb(204,204,204); fill-rule: nonzero; opacity: 1;" transform=" translate(-320.0553, -453.9857)" d="M 336.34245 461.93066 H 303.76814 v -7.15977 a 8.73991 8.73991 0 0 1 8.73014 -8.73014 h 23.84417 Z" stroke-linecap="round"/>
</g>
<g transform="matrix(1.6226 0 0 1.6226 703.2115 502.799)" id="974204">
<path style="stroke: none; stroke-width: 1; stroke-dasharray: none; stroke-linecap: butt; stroke-dashoffset: 0; stroke-linejoin: miter; stroke-miterlimit: 4; is-custom-font: none; font-file-url: none; fill: rgb(204,204,204); fill-rule: nonzero; opacity: 1;" transform=" translate(-569.5269, -453.9857)" d="M 585.814 461.93066 H 553.2397 V 446.04075 h 23.84417 a 8.7399 8.7399 0 0 1 8.73014 8.73014 Z" stroke-linecap="round"/>
</g>
<g transform="matrix(1.5271 -0.5486 0.5486 1.5271 137.141 744.7376)" id="757886">
<rect style="stroke: none; stroke-width: 1; stroke-dasharray: none; stroke-linecap: butt; stroke-dashoffset: 0; stroke-linejoin: miter; stroke-miterlimit: 4; is-custom-font: none; font-file-url: none; fill: rgb(63,61,86); fill-rule: nonzero; opacity: 1;" x="-84.60525" y="-0.9998" rx="0" ry="0" width="169.2105" height="1.9996"/>
</g>
<g transform="matrix(0.5484 -1.5271 1.5271 0.5484 862.8483 744.7299)" id="857180">
<rect style="stroke: none; stroke-width: 1; stroke-dasharray: none; stroke-linecap: butt; stroke-dashoffset: 0; stroke-linejoin: miter; stroke-miterlimit: 4; is-custom-font: none; font-file-url: none; fill: rgb(63,61,86); fill-rule: nonzero; opacity: 1;" x="-0.99975" y="-84.6052" rx="0" ry="0" width="1.9995" height="169.2104"/>
</g>
<g transform="matrix(1.6226 0 0 1.6226 507.4352 734.1414)" id="916388">
<path style="stroke: none; stroke-width: 1; stroke-dasharray: none; stroke-linecap: butt; stroke-dashoffset: 0; stroke-linejoin: miter; stroke-miterlimit: 4; is-custom-font: none; font-file-url: none; fill: rgb(230,230,230); fill-rule: nonzero; opacity: 1;" transform=" translate(-448.8737, -596.5574)" d="M 453.63975 615.0253 h -9.532 V 602.71366 h 9.532 Z m 0 -24.6242 h -9.532 V 578.08945 h 9.532 Z" stroke-linecap="round"/>
</g>
<g transform="matrix(1.6226 0 0 1.6226 507.4352 816.8962)" id="168559">
<path style="stroke: none; stroke-width: 1; stroke-dasharray: none; stroke-linecap: butt; stroke-dashoffset: 0; stroke-linejoin: miter; stroke-miterlimit: 4; is-custom-font: none; font-file-url: none; fill: rgb(230,230,230); fill-rule: nonzero; opacity: 1;" transform=" translate(-448.8737, -647.5574)" d="M 453.63975 666.0253 h -9.532 V 653.71366 h 9.532 Z m 0 -24.6242 h -9.532 V 629.08945 h 9.532 Z" stroke-linecap="round"/>
</g>
<g transform="matrix(1.6226 0 0 1.6226 500.3423 229.8689)" id="487117">
<circle style="stroke: none; stroke-width: 1; stroke-dasharray: none; stroke-linecap: butt; stroke-dashoffset: 0; stroke-linejoin: miter; stroke-miterlimit: 4; is-custom-font: none; font-file-url: none; fill: rgb(0,98,37); fill-rule: nonzero; opacity: 1;" cx="0" cy="0" r="47.28997"/>
</g>
<g transform="matrix(1.6846 0 0 1.6846 499.9993 230.4117)" id="325232">
<g style="" vector-effect="non-scaling-stroke">
		<g transform="matrix(1 0 0 1 0 0)">
<path style="stroke: none; stroke-width: 1; stroke-dasharray: none; stroke-linecap: butt; stroke-dashoffset: 0; stroke-linejoin: miter; stroke-miterlimit: 4; is-custom-font: none; font-file-url: none; fill: none; fill-rule: nonzero; opacity: 1;" transform=" translate(-24, -24)" d="M 0 0 h 48 v 48 H 0 z" stroke-linecap="round"/>
</g>
		<g transform="matrix(1 0 0 1 0 0)">
<path style="stroke: none; stroke-width: 1; stroke-dasharray: none; stroke-linecap: butt; stroke-dashoffset: 0; stroke-linejoin: miter; stroke-miterlimit: 4; is-custom-font: none; font-file-url: none; fill: rgb(255,255,255); fill-rule: nonzero; opacity: 1;" transform=" translate(-24, -24)" d="M 8 12 H 4 v 28 c 0 2.21 1.79 4 4 4 h 28 v -4 H 8 V 12 z m 32 -8 H 16 c -2.21 0 -4 1.79 -4 4 v 24 c 0 2.21 1.79 4 4 4 h 24 c 2.21 0 4 -1.79 4 -4 V 8 c 0 -2.21 -1.79 -4 -4 -4 z m -2 18 h -8 v 8 h -4 v -8 h -8 v -4 h 8 v -8 h 4 v 8 h 8 v 4 z" stroke-linecap="round"/>
</g>
</g>
</g>
</svg>