<svg xmlns="http://www.w3.org/2000/svg" xmlns:xlink="http://www.w3.org/1999/xlink" version="1.1" width="1000" height="600" viewBox="0 0 1000 600" xml:space="preserve">
<desc>Created with Fabric.js 3.5.0</desc>
<defs>
</defs>
<rect x="0" y="0" width="100%" height="100%" fill="rgba(255,255,255,0)"/>
<g transform="matrix(1.0257 0 0 1.0257 653.6116 263.592)" id="713020">
<circle style="stroke: none; stroke-width: 0; stroke-dasharray: none; stroke-linecap: butt; stroke-dashoffset: 0; stroke-linejoin: miter; stroke-miterlimit: 4; is-custom-font: none; font-file-url: none; fill: rgb(0,98,37); fill-rule: nonzero; opacity: 1;" cx="0" cy="0" r="15.29649"/>
</g>
<g transform="matrix(1.0257 0 0 1.0257 653.5169 286.0391)" id="976674">
<polygon style="stroke: none; stroke-width: 0; stroke-dasharray: none; stroke-linecap: butt; stroke-dashoffset: 0; stroke-linejoin: miter; stroke-miterlimit: 4; is-custom-font: none; font-file-url: none; fill: rgb(180,180,180); fill-rule: nonzero; opacity: 1;" points="1.5665,24.189 -1.5665,24.189 -0.1385,-24.189 1.5665,24.189 "/>
</g>
<g transform="matrix(1.0257 0 0 1.0257 655.1707 268.8369)" id="302732">
<polygon style="stroke: none; stroke-width: 0; stroke-dasharray: none; stroke-linecap: butt; stroke-dashoffset: 0; stroke-linejoin: miter; stroke-miterlimit: 4; is-custom-font: none; font-file-url: none; fill: rgb(180,180,180); fill-rule: nonzero; opacity: 1;" points="-1.475,1.751 1.889,-2.903 -1.521,2.903 -1.889,2.258 -1.475,1.751 "/>
</g>
<g transform="matrix(1.0257 0 0 1.0257 651.7675 273.6569)" id="379311">
<polygon style="stroke: none; stroke-width: 0; stroke-dasharray: none; stroke-linecap: butt; stroke-dashoffset: 0; stroke-linejoin: miter; stroke-miterlimit: 4; is-custom-font: none; font-file-url: none; fill: rgb(180,180,180); fill-rule: nonzero; opacity: 1;" points="1.475,1.7505 -1.889,-2.9025 1.521,2.9025 1.889,2.2575 1.475,1.7505 "/>
</g>
<g transform="matrix(1.0257 0 0 1.0257 797.5282 263.592)" id="865608">
<circle style="stroke: none; stroke-width: 0; stroke-dasharray: none; stroke-linecap: butt; stroke-dashoffset: 0; stroke-linejoin: miter; stroke-miterlimit: 4; is-custom-font: none; font-file-url: none; fill: rgb(0,98,37); fill-rule: nonzero; opacity: 1;" cx="0" cy="0" r="15.29649"/>
</g>
<g transform="matrix(1.0257 0 0 1.0257 797.4327 286.0391)" id="884454">
<polygon style="stroke: none; stroke-width: 0; stroke-dasharray: none; stroke-linecap: butt; stroke-dashoffset: 0; stroke-linejoin: miter; stroke-miterlimit: 4; is-custom-font: none; font-file-url: none; fill: rgb(180,180,180); fill-rule: nonzero; opacity: 1;" points="1.5665,24.189 -1.5665,24.189 -0.1375,-24.189 1.5665,24.189 "/>
</g>
<g transform="matrix(1.0257 0 0 1.0257 799.0871 268.8369)" id="797552">
<polygon style="stroke: none; stroke-width: 0; stroke-dasharray: none; stroke-linecap: butt; stroke-dashoffset: 0; stroke-linejoin: miter; stroke-miterlimit: 4; is-custom-font: none; font-file-url: none; fill: rgb(180,180,180); fill-rule: nonzero; opacity: 1;" points="-1.4745,1.751 1.8895,-2.903 -1.5205,2.903 -1.8895,2.258 -1.4745,1.751 "/>
</g>
<g transform="matrix(1.0257 0 0 1.0257 795.6844 273.6569)" id="102781">
<polygon style="stroke: none; stroke-width: 0; stroke-dasharray: none; stroke-linecap: butt; stroke-dashoffset: 0; stroke-linejoin: miter; stroke-miterlimit: 4; is-custom-font: none; font-file-url: none; fill: rgb(180,180,180); fill-rule: nonzero; opacity: 1;" points="1.475,1.7505 -1.889,-2.9025 1.521,2.9025 1.889,2.2575 1.475,1.7505 "/>
</g>
<g transform="matrix(1.0257 0 0 1.0257 699.06 241.0552)" id="470439">
<circle style="stroke: none; stroke-width: 0; stroke-dasharray: none; stroke-linecap: butt; stroke-dashoffset: 0; stroke-linejoin: miter; stroke-miterlimit: 4; is-custom-font: none; font-file-url: none; fill: rgb(0,98,37); fill-rule: nonzero; opacity: 1;" cx="0" cy="0" r="22.59164"/>
</g>
<g transform="matrix(1.0257 0 0 1.0257 698.9196 274.2076)" id="372956">
<polygon style="stroke: none; stroke-width: 0; stroke-dasharray: none; stroke-linecap: butt; stroke-dashoffset: 0; stroke-linejoin: miter; stroke-miterlimit: 4; is-custom-font: none; font-file-url: none; fill: rgb(180,180,180); fill-rule: nonzero; opacity: 1;" points="2.3135,35.725 -2.3135,35.725 -0.2045,-35.725 2.3135,35.725 "/>
</g>
<g transform="matrix(1.0257 0 0 1.0257 701.3622 248.8018)" id="795797">
<polygon style="stroke: none; stroke-width: 0; stroke-dasharray: none; stroke-linecap: butt; stroke-dashoffset: 0; stroke-linejoin: miter; stroke-miterlimit: 4; is-custom-font: none; font-file-url: none; fill: rgb(180,180,180); fill-rule: nonzero; opacity: 1;" points="-2.177,2.585 2.79,-4.287 -2.245,4.287 -2.79,3.334 -2.177,2.585 "/>
</g>
<g transform="matrix(1.0257 0 0 1.0257 696.3375 255.9204)" id="564811">
<polygon style="stroke: none; stroke-width: 0; stroke-dasharray: none; stroke-linecap: butt; stroke-dashoffset: 0; stroke-linejoin: miter; stroke-miterlimit: 4; is-custom-font: none; font-file-url: none; fill: rgb(180,180,180); fill-rule: nonzero; opacity: 1;" points="2.177,2.5855 -2.79,-4.2865 2.245,4.2865 2.79,3.3345 2.177,2.5855 "/>
</g>
<g transform="matrix(1.0257 0 0 1.0257 755.5671 241.0552)" id="864139">
<circle style="stroke: none; stroke-width: 0; stroke-dasharray: none; stroke-linecap: butt; stroke-dashoffset: 0; stroke-linejoin: miter; stroke-miterlimit: 4; is-custom-font: none; font-file-url: none; fill: rgb(0,98,37); fill-rule: nonzero; opacity: 1;" cx="0" cy="0" r="22.59164"/>
</g>
<g transform="matrix(1.0257 0 0 1.0257 755.4271 274.2076)" id="669774">
<polygon style="stroke: none; stroke-width: 0; stroke-dasharray: none; stroke-linecap: butt; stroke-dashoffset: 0; stroke-linejoin: miter; stroke-miterlimit: 4; is-custom-font: none; font-file-url: none; fill: rgb(180,180,180); fill-rule: nonzero; opacity: 1;" points="2.3135,35.725 -2.3135,35.725 -0.2045,-35.725 2.3135,35.725 "/>
</g>
<g transform="matrix(1.0257 0 0 1.0257 757.8696 248.8018)" id="884599">
<polygon style="stroke: none; stroke-width: 0; stroke-dasharray: none; stroke-linecap: butt; stroke-dashoffset: 0; stroke-linejoin: miter; stroke-miterlimit: 4; is-custom-font: none; font-file-url: none; fill: rgb(180,180,180); fill-rule: nonzero; opacity: 1;" points="-2.178,2.585 2.79,-4.287 -2.246,4.287 -2.79,3.334 -2.178,2.585 "/>
</g>
<g transform="matrix(1.0257 0 0 1.0257 752.8439 255.9204)" id="675963">
<polygon style="stroke: none; stroke-width: 0; stroke-dasharray: none; stroke-linecap: butt; stroke-dashoffset: 0; stroke-linejoin: miter; stroke-miterlimit: 4; is-custom-font: none; font-file-url: none; fill: rgb(180,180,180); fill-rule: nonzero; opacity: 1;" points="2.178,2.5855 -2.79,-4.2865 2.246,4.2865 2.79,3.3345 2.178,2.5855 "/>
</g>
<g transform="matrix(1.0257 0 0 1.0257 609.0017 241.0552)" id="605744">
<circle style="stroke: none; stroke-width: 0; stroke-dasharray: none; stroke-linecap: butt; stroke-dashoffset: 0; stroke-linejoin: miter; stroke-miterlimit: 4; is-custom-font: none; font-file-url: none; fill: rgb(0,98,37); fill-rule: nonzero; opacity: 1;" cx="0" cy="0" r="22.59164"/>
</g>
<g transform="matrix(1.0257 0 0 1.0257 608.8609 274.2076)" id="77305">
<polygon style="stroke: none; stroke-width: 0; stroke-dasharray: none; stroke-linecap: butt; stroke-dashoffset: 0; stroke-linejoin: miter; stroke-miterlimit: 4; is-custom-font: none; font-file-url: none; fill: rgb(180,180,180); fill-rule: nonzero; opacity: 1;" points="2.3135,35.725 -2.3135,35.725 -0.2035,-35.725 2.3135,35.725 "/>
</g>
<g transform="matrix(1.0257 0 0 1.0257 611.304 248.8018)" id="442745">
<polygon style="stroke: none; stroke-width: 0; stroke-dasharray: none; stroke-linecap: butt; stroke-dashoffset: 0; stroke-linejoin: miter; stroke-miterlimit: 4; is-custom-font: none; font-file-url: none; fill: rgb(180,180,180); fill-rule: nonzero; opacity: 1;" points="-2.1775,2.585 2.7895,-4.287 -2.2455,4.287 -2.7895,3.334 -2.1775,2.585 "/>
</g>
<g transform="matrix(1.0257 0 0 1.0257 606.2788 255.9204)" id="448639">
<polygon style="stroke: none; stroke-width: 0; stroke-dasharray: none; stroke-linecap: butt; stroke-dashoffset: 0; stroke-linejoin: miter; stroke-miterlimit: 4; is-custom-font: none; font-file-url: none; fill: rgb(180,180,180); fill-rule: nonzero; opacity: 1;" points="2.178,2.5855 -2.79,-4.2865 2.246,4.2865 2.79,3.3345 2.178,2.5855 "/>
</g>
<g transform="matrix(1.0257 0 0 1.0257 504.2307 428.8377)" id="540538">
<path style="stroke: none; stroke-width: 0; stroke-dasharray: none; stroke-linecap: butt; stroke-dashoffset: 0; stroke-linejoin: miter; stroke-miterlimit: 4; is-custom-font: none; font-file-url: none; fill: rgb(230,230,230); fill-rule: nonzero; opacity: 1;" transform=" translate(-604.6249, -576.1119)" d="M 974.074 695.81557 H 236.80819 a 70.734 70.734 0 1 1 0 -141.468 H 972.44164 a 27.20538 27.20538 0 0 0 0 -54.41076 H 212.32335 v -43.5286 H 972.44164 a 70.734 70.734 0 1 1 0 141.468 H 236.80819 a 27.20538 27.20538 0 1 0 0 54.41076 H 974.074 Z" stroke-linecap="round"/>
</g>
<g transform="matrix(1.0257 0 0 1.0257 147.0491 328.3803)" id="655394">
<rect style="stroke: none; stroke-width: 0; stroke-dasharray: none; stroke-linecap: butt; stroke-dashoffset: 0; stroke-linejoin: miter; stroke-miterlimit: 4; is-custom-font: none; font-file-url: none; fill: rgb(255,255,255); fill-rule: nonzero; opacity: 1;" x="-16.86735" y="-1.0882" rx="0" ry="0" width="33.7347" height="2.1764"/>
</g>
<g transform="matrix(1.0257 0 0 1.0257 245.2688 328.3803)" id="741876">
<rect style="stroke: none; stroke-width: 0; stroke-dasharray: none; stroke-linecap: butt; stroke-dashoffset: 0; stroke-linejoin: miter; stroke-miterlimit: 4; is-custom-font: none; font-file-url: none; fill: rgb(255,255,255); fill-rule: nonzero; opacity: 1;" x="-16.86735" y="-1.0882" rx="0" ry="0" width="33.7347" height="2.1764"/>
</g>
<g transform="matrix(1.0257 0 0 1.0257 343.4886 328.3803)" id="330021">
<rect style="stroke: none; stroke-width: 0; stroke-dasharray: none; stroke-linecap: butt; stroke-dashoffset: 0; stroke-linejoin: miter; stroke-miterlimit: 4; is-custom-font: none; font-file-url: none; fill: rgb(255,255,255); fill-rule: nonzero; opacity: 1;" x="-16.86735" y="-1.0882" rx="0" ry="0" width="33.7347" height="2.1764"/>
</g>
<g transform="matrix(1.0257 0 0 1.0257 441.7084 328.3803)" id="750932">
<rect style="stroke: none; stroke-width: 0; stroke-dasharray: none; stroke-linecap: butt; stroke-dashoffset: 0; stroke-linejoin: miter; stroke-miterlimit: 4; is-custom-font: none; font-file-url: none; fill: rgb(255,255,255); fill-rule: nonzero; opacity: 1;" x="-16.86735" y="-1.0882" rx="0" ry="0" width="33.7347" height="2.1764"/>
</g>
<g transform="matrix(1.0257 0 0 1.0257 539.9281 328.3803)" id="518150">
<rect style="stroke: none; stroke-width: 0; stroke-dasharray: none; stroke-linecap: butt; stroke-dashoffset: 0; stroke-linejoin: miter; stroke-miterlimit: 4; is-custom-font: none; font-file-url: none; fill: rgb(255,255,255); fill-rule: nonzero; opacity: 1;" x="-16.86735" y="-1.0882" rx="0" ry="0" width="33.7347" height="2.1764"/>
</g>
<g transform="matrix(1.0257 0 0 1.0257 638.1479 328.3803)" id="113232">
<rect style="stroke: none; stroke-width: 0; stroke-dasharray: none; stroke-linecap: butt; stroke-dashoffset: 0; stroke-linejoin: miter; stroke-miterlimit: 4; is-custom-font: none; font-file-url: none; fill: rgb(255,255,255); fill-rule: nonzero; opacity: 1;" x="-16.86735" y="-1.0882" rx="0" ry="0" width="33.7347" height="2.1764"/>
</g>
<g transform="matrix(1.0257 0 0 1.0257 736.3677 328.3803)" id="473886">
<rect style="stroke: none; stroke-width: 0; stroke-dasharray: none; stroke-linecap: butt; stroke-dashoffset: 0; stroke-linejoin: miter; stroke-miterlimit: 4; is-custom-font: none; font-file-url: none; fill: rgb(255,255,255); fill-rule: nonzero; opacity: 1;" x="-16.86735" y="-1.0882" rx="0" ry="0" width="33.7347" height="2.1764"/>
</g>
<g transform="matrix(1.0257 0 0 1.0257 834.5874 328.3803)" id="372337">
<rect style="stroke: none; stroke-width: 0; stroke-dasharray: none; stroke-linecap: butt; stroke-dashoffset: 0; stroke-linejoin: miter; stroke-miterlimit: 4; is-custom-font: none; font-file-url: none; fill: rgb(255,255,255); fill-rule: nonzero; opacity: 1;" x="-16.86735" y="-1.0882" rx="0" ry="0" width="33.7347" height="2.1764"/>
</g>
<g transform="matrix(1.0257 0 0 1.0257 147.0491 428.8324)" id="238508">
<rect style="stroke: none; stroke-width: 0; stroke-dasharray: none; stroke-linecap: butt; stroke-dashoffset: 0; stroke-linejoin: miter; stroke-miterlimit: 4; is-custom-font: none; font-file-url: none; fill: rgb(255,255,255); fill-rule: nonzero; opacity: 1;" x="-16.86735" y="-1.0882" rx="0" ry="0" width="33.7347" height="2.1764"/>
</g>
<g transform="matrix(1.0257 0 0 1.0257 245.2688 428.8324)" id="370772">
<rect style="stroke: none; stroke-width: 0; stroke-dasharray: none; stroke-linecap: butt; stroke-dashoffset: 0; stroke-linejoin: miter; stroke-miterlimit: 4; is-custom-font: none; font-file-url: none; fill: rgb(255,255,255); fill-rule: nonzero; opacity: 1;" x="-16.86735" y="-1.0882" rx="0" ry="0" width="33.7347" height="2.1764"/>
</g>
<g transform="matrix(1.0257 0 0 1.0257 343.4886 428.8324)" id="804739">
<rect style="stroke: none; stroke-width: 0; stroke-dasharray: none; stroke-linecap: butt; stroke-dashoffset: 0; stroke-linejoin: miter; stroke-miterlimit: 4; is-custom-font: none; font-file-url: none; fill: rgb(255,255,255); fill-rule: nonzero; opacity: 1;" x="-16.86735" y="-1.0882" rx="0" ry="0" width="33.7347" height="2.1764"/>
</g>
<g transform="matrix(1.0257 0 0 1.0257 441.7084 428.8324)" id="228982">
<rect style="stroke: none; stroke-width: 0; stroke-dasharray: none; stroke-linecap: butt; stroke-dashoffset: 0; stroke-linejoin: miter; stroke-miterlimit: 4; is-custom-font: none; font-file-url: none; fill: rgb(255,255,255); fill-rule: nonzero; opacity: 1;" x="-16.86735" y="-1.0882" rx="0" ry="0" width="33.7347" height="2.1764"/>
</g>
<g transform="matrix(1.0257 0 0 1.0257 539.9281 428.8324)" id="431091">
<rect style="stroke: none; stroke-width: 0; stroke-dasharray: none; stroke-linecap: butt; stroke-dashoffset: 0; stroke-linejoin: miter; stroke-miterlimit: 4; is-custom-font: none; font-file-url: none; fill: rgb(255,255,255); fill-rule: nonzero; opacity: 1;" x="-16.86735" y="-1.0882" rx="0" ry="0" width="33.7347" height="2.1764"/>
</g>
<g transform="matrix(1.0257 0 0 1.0257 638.1479 428.8324)" id="767381">
<rect style="stroke: none; stroke-width: 0; stroke-dasharray: none; stroke-linecap: butt; stroke-dashoffset: 0; stroke-linejoin: miter; stroke-miterlimit: 4; is-custom-font: none; font-file-url: none; fill: rgb(255,255,255); fill-rule: nonzero; opacity: 1;" x="-16.86735" y="-1.0882" rx="0" ry="0" width="33.7347" height="2.1764"/>
</g>
<g transform="matrix(1.0257 0 0 1.0257 736.3677 428.8324)" id="957874">
<rect style="stroke: none; stroke-width: 0; stroke-dasharray: none; stroke-linecap: butt; stroke-dashoffset: 0; stroke-linejoin: miter; stroke-miterlimit: 4; is-custom-font: none; font-file-url: none; fill: rgb(255,255,255); fill-rule: nonzero; opacity: 1;" x="-16.86735" y="-1.0882" rx="0" ry="0" width="33.7347" height="2.1764"/>
</g>
<g transform="matrix(1.0257 0 0 1.0257 834.5874 428.8324)" id="131513">
<rect style="stroke: none; stroke-width: 0; stroke-dasharray: none; stroke-linecap: butt; stroke-dashoffset: 0; stroke-linejoin: miter; stroke-miterlimit: 4; is-custom-font: none; font-file-url: none; fill: rgb(255,255,255); fill-rule: nonzero; opacity: 1;" x="-16.86735" y="-1.0882" rx="0" ry="0" width="33.7347" height="2.1764"/>
</g>
<g transform="matrix(1.0257 0 0 1.0257 147.0491 529.2844)" id="146561">
<rect style="stroke: none; stroke-width: 0; stroke-dasharray: none; stroke-linecap: butt; stroke-dashoffset: 0; stroke-linejoin: miter; stroke-miterlimit: 4; is-custom-font: none; font-file-url: none; fill: rgb(255,255,255); fill-rule: nonzero; opacity: 1;" x="-16.86735" y="-1.0882" rx="0" ry="0" width="33.7347" height="2.1764"/>
</g>
<g transform="matrix(1.0257 0 0 1.0257 245.2688 529.2844)" id="206577">
<rect style="stroke: none; stroke-width: 0; stroke-dasharray: none; stroke-linecap: butt; stroke-dashoffset: 0; stroke-linejoin: miter; stroke-miterlimit: 4; is-custom-font: none; font-file-url: none; fill: rgb(255,255,255); fill-rule: nonzero; opacity: 1;" x="-16.86735" y="-1.0882" rx="0" ry="0" width="33.7347" height="2.1764"/>
</g>
<g transform="matrix(1.0257 0 0 1.0257 343.4886 529.2844)" id="170904">
<rect style="stroke: none; stroke-width: 0; stroke-dasharray: none; stroke-linecap: butt; stroke-dashoffset: 0; stroke-linejoin: miter; stroke-miterlimit: 4; is-custom-font: none; font-file-url: none; fill: rgb(255,255,255); fill-rule: nonzero; opacity: 1;" x="-16.86735" y="-1.0882" rx="0" ry="0" width="33.7347" height="2.1764"/>
</g>
<g transform="matrix(1.0257 0 0 1.0257 441.7084 529.2844)" id="404676">
<rect style="stroke: none; stroke-width: 0; stroke-dasharray: none; stroke-linecap: butt; stroke-dashoffset: 0; stroke-linejoin: miter; stroke-miterlimit: 4; is-custom-font: none; font-file-url: none; fill: rgb(255,255,255); fill-rule: nonzero; opacity: 1;" x="-16.86735" y="-1.0882" rx="0" ry="0" width="33.7347" height="2.1764"/>
</g>
<g transform="matrix(1.0257 0 0 1.0257 539.9281 529.2844)" id="316456">
<rect style="stroke: none; stroke-width: 0; stroke-dasharray: none; stroke-linecap: butt; stroke-dashoffset: 0; stroke-linejoin: miter; stroke-miterlimit: 4; is-custom-font: none; font-file-url: none; fill: rgb(255,255,255); fill-rule: nonzero; opacity: 1;" x="-16.86735" y="-1.0882" rx="0" ry="0" width="33.7347" height="2.1764"/>
</g>
<g transform="matrix(1.0257 0 0 1.0257 638.1479 529.2844)" id="429827">
<rect style="stroke: none; stroke-width: 0; stroke-dasharray: none; stroke-linecap: butt; stroke-dashoffset: 0; stroke-linejoin: miter; stroke-miterlimit: 4; is-custom-font: none; font-file-url: none; fill: rgb(255,255,255); fill-rule: nonzero; opacity: 1;" x="-16.86735" y="-1.0882" rx="0" ry="0" width="33.7347" height="2.1764"/>
</g>
<g transform="matrix(1.0257 0 0 1.0257 736.3677 529.2844)" id="49448">
<rect style="stroke: none; stroke-width: 0; stroke-dasharray: none; stroke-linecap: butt; stroke-dashoffset: 0; stroke-linejoin: miter; stroke-miterlimit: 4; is-custom-font: none; font-file-url: none; fill: rgb(255,255,255); fill-rule: nonzero; opacity: 1;" x="-16.86735" y="-1.0882" rx="0" ry="0" width="33.7347" height="2.1764"/>
</g>
<g transform="matrix(1.0257 0 0 1.0257 834.5874 529.2844)" id="485734">
<rect style="stroke: none; stroke-width: 0; stroke-dasharray: none; stroke-linecap: butt; stroke-dashoffset: 0; stroke-linejoin: miter; stroke-miterlimit: 4; is-custom-font: none; font-file-url: none; fill: rgb(255,255,255); fill-rule: nonzero; opacity: 1;" x="-16.86735" y="-1.0882" rx="0" ry="0" width="33.7347" height="2.1764"/>
</g>
<g transform="matrix(1.0257 0 0 1.0257 627.8976 152.3409)" id="401568">
<path style="stroke: none; stroke-width: 0; stroke-dasharray: none; stroke-linecap: butt; stroke-dashoffset: 0; stroke-linejoin: miter; stroke-miterlimit: 4; is-custom-font: none; font-file-url: none; fill: none; fill-rule: nonzero; opacity: 1;" transform=" translate(-732.277, -296.0277)" d="M 732.01016 298.87947 a 28.99191 28.99191 0 0 0 -6.04507 -5.70351 h 12.62379 A 21.11412 21.11412 0 0 0 732.01016 298.87947 Z" stroke-linecap="round"/>
</g>
<g transform="matrix(1.0257 0 0 1.0257 586.4141 149.9342)" id="782717">
<path style="stroke: none; stroke-width: 0; stroke-dasharray: none; stroke-linecap: butt; stroke-dashoffset: 0; stroke-linejoin: miter; stroke-miterlimit: 4; is-custom-font: none; font-file-url: none; fill: none; fill-rule: nonzero; opacity: 1;" transform=" translate(-691.8313, -293.6812)" d="M 690.74325 293.176 h 2.17616 c -0.46752 0.32845 -0.93648 0.65539 -1.38307 1.01036 C 691.28145 293.84181 691.00932 293.51136 690.74325 293.176 Z" stroke-linecap="round"/>
</g>
<g transform="matrix(1.0257 0 0 1.0257 644.7474 148.0737)" id="115863">
<path style="stroke: none; stroke-width: 0; stroke-dasharray: none; stroke-linecap: butt; stroke-dashoffset: 0; stroke-linejoin: miter; stroke-miterlimit: 4; is-custom-font: none; font-file-url: none; fill: rgb(230,230,230); fill-rule: nonzero; opacity: 1;" transform=" translate(-748.7051, -291.8673)" d="M 748.69208 290.55856 a 20.83292 20.83292 0 0 1 10.12924 2.6174 H 738.58888 A 20.74188 20.74188 0 0 1 748.69208 290.55856 Z" stroke-linecap="round"/>
</g>
<g transform="matrix(1.0257 0 0 1.0257 604.4776 146.7315)" id="9102">
<path style="stroke: none; stroke-width: 0; stroke-dasharray: none; stroke-linecap: butt; stroke-dashoffset: 0; stroke-linejoin: miter; stroke-miterlimit: 4; is-custom-font: none; font-file-url: none; fill: rgb(230,230,230); fill-rule: nonzero; opacity: 1;" transform=" translate(-709.4423, -290.5586)" d="M 709.43111 287.94117 a 28.623 28.623 0 0 1 16.534 5.23479 H 692.91941 A 28.61637 28.61637 0 0 1 709.43111 287.94117 Z" stroke-linecap="round"/>
</g>
<g transform="matrix(1.0257 0 0 1.0257 480.8048 103.7776)" id="492046">
<path style="stroke: none; stroke-width: 0; stroke-dasharray: none; stroke-linecap: butt; stroke-dashoffset: 0; stroke-linejoin: miter; stroke-miterlimit: 4; is-custom-font: none; font-file-url: none; fill: rgb(230,230,230); fill-rule: nonzero; opacity: 1;" transform=" translate(-588.8593, -248.6772)" d="M 487.03606 254.80744 a 53.65615 53.65615 0 0 1 105.27431 -11.3126 c 0.65 -0.02332 1.29951 -0.04944 1.95522 -0.04944 a 53.66909 53.66909 0 0 1 51.48218 38.53833 A 37.92036 37.92036 0 0 1 690.74325 293.176 h -167.372 a 36.29323 36.29323 0 0 1 -36.37313 -37.57718 Q 487.01422 255.2037 487.03606 254.80744 Z" stroke-linecap="round"/>
</g>
<g transform="matrix(1.0257 0 0 1.0257 681.3373 181.7433)" id="226986">
<path style="stroke: none; stroke-width: 0; stroke-dasharray: none; stroke-linecap: butt; stroke-dashoffset: 0; stroke-linejoin: miter; stroke-miterlimit: 4; is-custom-font: none; font-file-url: none; fill: none; fill-rule: nonzero; opacity: 1;" transform=" translate(-777.3202, -335.2035)" d="M 777.58705 338.05522 a 28.99214 28.99214 0 0 1 6.04507 -5.70351 H 771.00833 A 21.11388 21.11388 0 0 1 777.58705 338.05522 Z" stroke-linecap="round"/>
</g>
<g transform="matrix(1.0257 0 0 1.0257 722.8204 179.3365)" id="831246">
<path style="stroke: none; stroke-width: 0; stroke-dasharray: none; stroke-linecap: butt; stroke-dashoffset: 0; stroke-linejoin: miter; stroke-miterlimit: 4; is-custom-font: none; font-file-url: none; fill: none; fill-rule: nonzero; opacity: 1;" transform=" translate(-817.7659, -332.8569)" d="M 818.854 332.35171 h -2.17616 c 0.46752 0.32845 0.93647 0.65539 1.38306 1.01036 C 818.31576 333.01756 818.5879 332.68711 818.854 332.35171 Z" stroke-linecap="round"/>
</g>
<g transform="matrix(1.0257 0 0 1.0257 664.4879 177.4761)" id="811603">
<path style="stroke: none; stroke-width: 0; stroke-dasharray: none; stroke-linecap: butt; stroke-dashoffset: 0; stroke-linejoin: miter; stroke-miterlimit: 4; is-custom-font: none; font-file-url: none; fill: rgb(230,230,230); fill-rule: nonzero; opacity: 1;" transform=" translate(-760.8921, -331.043)" d="M 760.90514 329.73431 a 20.83286 20.83286 0 0 0 -10.12924 2.6174 h 20.23243 A 20.74171 20.74171 0 0 0 760.90514 329.73431 Z" stroke-linecap="round"/>
</g>
<g transform="matrix(1.0257 0 0 1.0257 704.7583 176.1339)" id="37719">
<path style="stroke: none; stroke-width: 0; stroke-dasharray: none; stroke-linecap: butt; stroke-dashoffset: 0; stroke-linejoin: miter; stroke-miterlimit: 4; is-custom-font: none; font-file-url: none; fill: rgb(230,230,230); fill-rule: nonzero; opacity: 1;" transform=" translate(-800.155, -329.7343)" d="M 800.16611 327.11691 a 28.62293 28.62293 0 0 0 -16.534 5.2348 h 33.04569 A 28.61635 28.61635 0 0 0 800.16611 327.11691 Z" stroke-linecap="round"/>
</g>
<g transform="matrix(1.0257 0 0 1.0257 828.4387 133.1799)" id="388600">
<path style="stroke: none; stroke-width: 0; stroke-dasharray: none; stroke-linecap: butt; stroke-dashoffset: 0; stroke-linejoin: miter; stroke-miterlimit: 4; is-custom-font: none; font-file-url: none; fill: rgb(230,230,230); fill-rule: nonzero; opacity: 1;" transform=" translate(-920.7379, -287.8529)" d="M 1022.56115 293.98318 a 53.65615 53.65615 0 0 0 -105.27431 -11.31259 c -0.65 -0.02333 -1.29951 -0.04945 -1.95522 -0.04945 a 53.66909 53.66909 0 0 0 -51.48218 38.53833 A 37.92038 37.92038 0 0 0 818.854 332.35171 H 986.226 a 36.29324 36.29324 0 0 0 36.37314 -37.57719 Q 1022.583 294.37945 1022.56115 293.98318 Z" stroke-linecap="round"/>
</g>
<g transform="matrix(-1.0257 -0.0005 0.0005 -1.0257 829.4234 519.8556)" id="473233">
<rect style="stroke: none; stroke-width: 0; stroke-dasharray: none; stroke-linecap: butt; stroke-dashoffset: 0; stroke-linejoin: miter; stroke-miterlimit: 4; is-custom-font: none; font-file-url: none; fill: rgb(180,180,180); fill-rule: nonzero; opacity: 1;" x="-9.7263" y="-1.54385" rx="0" ry="0" width="19.4526" height="3.0877"/>
</g>
<g transform="matrix(1.0257 0 0 1.0257 756.5384 479.7225)" id="248016">
<path style="stroke: none; stroke-width: 0; stroke-dasharray: none; stroke-linecap: butt; stroke-dashoffset: 0; stroke-linejoin: miter; stroke-miterlimit: 4; is-custom-font: none; font-file-url: none; fill: rgb(0,98,37); fill-rule: nonzero; opacity: 1;" transform=" translate(-850.6371, -625.7275)" d="M 770.33154 663.006 l 4.01354 0.92846 l 152.53335 0.08154 l 1.37161 -3.19572 a 32.257 32.257 0 0 0 2.37148 -17.44193 c -0.65694 -4.4136 -2.30315 -8.79914 -6.04213 -10.70394 L 917.8105 587.59 l -84.38886 -0.151 L 800.7719 613.77308 s -15.40137 -0.27686 -23.7685 10.13972 a 24.44959 24.44959 0 0 0 -5.1143 13.46591 l -0.33022 5.41878 Z" stroke-linecap="round"/>
</g>
<g transform="matrix(1.0257 0 0 1.0257 749.7379 454.9787)" id="239698">
<polygon style="stroke: none; stroke-width: 0; stroke-dasharray: none; stroke-linecap: butt; stroke-dashoffset: 0; stroke-linejoin: miter; stroke-miterlimit: 4; is-custom-font: none; font-file-url: none; fill: rgb(255,255,255); fill-rule: nonzero; opacity: 1;" points="-30.2645,9.0915 15.2985,9.1105 20.8605,9.1105 30.2505,9.1175 30.2505,8.4325 30.2575,0.1745 30.2645,-9.0975 24.0165,-9.0975 18.4545,-9.1035 8.6025,-9.1105 3.0405,-9.1105 -8.3335,-9.1175 -30.2645,9.0915 "/>
</g>
<g transform="matrix(1.0257 0 0 1.0257 800.7235 455.0028)" id="229113">
<polygon style="stroke: none; stroke-width: 0; stroke-dasharray: none; stroke-linecap: butt; stroke-dashoffset: 0; stroke-linejoin: miter; stroke-miterlimit: 4; is-custom-font: none; font-file-url: none; fill: rgb(255,255,255); fill-rule: nonzero; opacity: 1;" points="-12.0465,9.101 12.0335,9.114 12.0395,4.389 12.0395,-3.869 12.0465,-9.101 8.5205,-9.101 2.9585,-9.108 -12.0395,-9.114 -12.0465,9.101 "/>
</g>
<g transform="matrix(-1.0257 -0.0005 0.0005 -1.0257 780.198 482.301)" id="522591">
<rect style="stroke: none; stroke-width: 0; stroke-dasharray: none; stroke-linecap: butt; stroke-dashoffset: 0; stroke-linejoin: miter; stroke-miterlimit: 4; is-custom-font: none; font-file-url: none; fill: rgb(180,180,180); fill-rule: nonzero; opacity: 1;" x="-1.54385" y="-2.93335" rx="0" ry="0" width="3.0877" height="5.8667"/>
</g>
<g transform="matrix(-0.0005 1.0257 -1.0257 -0.0005 729.3743 471.2725)" id="202018">
<rect style="stroke: none; stroke-width: 0; stroke-dasharray: none; stroke-linecap: butt; stroke-dashoffset: 0; stroke-linejoin: miter; stroke-miterlimit: 4; is-custom-font: none; font-file-url: none; fill: rgb(180,180,180); fill-rule: nonzero; opacity: 1;" x="-1.54385" y="-2.93335" rx="0" ry="0" width="3.0877" height="5.8667"/>
</g>
<g transform="matrix(-1.0257 -0.0005 0.0005 -1.0257 726.6857 465.4875)" id="913443">
<path style="stroke: none; stroke-width: 0; stroke-dasharray: none; stroke-linecap: butt; stroke-dashoffset: 0; stroke-linejoin: miter; stroke-miterlimit: 4; is-custom-font: none; font-file-url: none; fill: rgb(180,180,180); fill-rule: nonzero; opacity: 1;" transform=" translate(-820.5349, -610.8503)" d="M 817.13838 604.397 h 0.33966 a 6.45333 6.45333 0 0 1 6.45333 6.45333 v 0 a 6.45333 6.45333 0 0 1 -6.45333 6.45333 h -0.33966 a 0 0 0 0 1 0 0 V 604.397 A 0 0 0 0 1 817.13838 604.397 Z" stroke-linecap="round"/>
</g>
<g transform="matrix(1.0257 0 0 1.0257 681.0972 487.5748)" id="154616">
<path style="stroke: none; stroke-width: 0; stroke-dasharray: none; stroke-linecap: butt; stroke-dashoffset: 0; stroke-linejoin: miter; stroke-miterlimit: 4; is-custom-font: none; font-file-url: none; fill: rgb(180,180,180); fill-rule: nonzero; opacity: 1;" transform=" translate(-777.0861, -633.3846)" d="M 771.55888 642.79749 a 9.97473 9.97473 0 0 0 5.44452 -18.88469 a 24.44959 24.44959 0 0 0 -5.1143 13.46591 Z" stroke-linecap="round"/>
</g>
<g transform="matrix(1.0257 0 0 1.0257 774.7177 454.6346)" id="564455">
<polygon style="stroke: none; stroke-width: 0; stroke-dasharray: none; stroke-linecap: butt; stroke-dashoffset: 0; stroke-linejoin: miter; stroke-miterlimit: 4; is-custom-font: none; font-file-url: none; fill: rgb(242,242,242); fill-rule: nonzero; opacity: 1;" points="-5.9015,-8.768 5.8945,8.768 5.9015,0.51 -0.3395,-8.762 -5.9015,-8.768 "/>
</g>
<g transform="matrix(1.0257 0 0 1.0257 808.4145 452.5827)" id="168487">
<polygon style="stroke: none; stroke-width: 0; stroke-dasharray: none; stroke-linecap: butt; stroke-dashoffset: 0; stroke-linejoin: miter; stroke-miterlimit: 4; is-custom-font: none; font-file-url: none; fill: rgb(242,242,242); fill-rule: nonzero; opacity: 1;" points="-4.5405,-6.7485 4.5405,6.7485 4.5405,-1.5095 1.0215,-6.7415 -4.5405,-6.7485 "/>
</g>
<g transform="matrix(1.0257 0 0 1.0257 761.9941 454.9787)" id="353872">
<polygon style="stroke: none; stroke-width: 0; stroke-dasharray: none; stroke-linecap: butt; stroke-dashoffset: 0; stroke-linejoin: miter; stroke-miterlimit: 4; is-custom-font: none; font-file-url: none; fill: rgb(242,242,242); fill-rule: nonzero; opacity: 1;" points="-8.91,-9.1105 3.348,9.1105 8.91,9.1105 -3.348,-9.1105 -8.91,-9.1105 "/>
</g>
<g transform="matrix(1.0257 0 0 1.0257 98.3179 317.0403)" id="173353">
<circle style="stroke: rgb(0,98,37); stroke-width: 4; stroke-dasharray: none; stroke-linecap: butt; stroke-dashoffset: 0; stroke-linejoin: miter; stroke-miterlimit: 4; is-custom-font: none; font-file-url: none; fill: rgb(19,181,234); fill-rule: nonzero; opacity: 1;" cx="0" cy="0" r="50.0579"/>
</g>
<g transform="matrix(1.0257 0 0 1.0313 115.4151 299.7148)" id="443516">
<path style="stroke: none; stroke-width: 0; stroke-dasharray: none; stroke-linecap: butt; stroke-dashoffset: 0; stroke-linejoin: miter; stroke-miterlimit: 4; is-custom-font: none; font-file-url: none; fill: rgb(0,98,37); fill-rule: nonzero; opacity: 1;" transform=" translate(-227.0138, -439.4609)" d="M 207.09056 480.18425 l -25.05073 -25.05073 a 4.35315 4.35315 0 0 1 6.15628 -6.15628 L 206.674 467.45511 l 58.96394 -67.23927 a 4.35271 4.35271 0 0 1 6.54523 5.7397 Z" stroke-linecap="round"/>
</g>
<g transform="matrix(1 0 0 1 756.1939 517.2086)" id="487645">
<g style="">
		<g transform="matrix(1.0257 0 0 1.0257 47.6624 0.0255)" id="42160">
<circle style="stroke: none; stroke-width: 0; stroke-dasharray: none; stroke-linecap: butt; stroke-dashoffset: 0; stroke-linejoin: miter; stroke-miterlimit: 4; is-custom-font: none; font-file-url: none; fill: rgb(41,41,41); fill-rule: nonzero; opacity: 1;" cx="0" cy="0" r="18.83509"/>
</g>
		<g transform="matrix(1.0257 0 0 1.0257 47.6619 0.0251)" id="546226">
<circle style="stroke: none; stroke-width: 0; stroke-dasharray: none; stroke-linecap: butt; stroke-dashoffset: 0; stroke-linejoin: miter; stroke-miterlimit: 4; is-custom-font: none; font-file-url: none; fill: rgb(204,204,204); fill-rule: nonzero; opacity: 1;" cx="0" cy="0" r="9.91321"/>
</g>
		<g transform="matrix(1.0257 0 0 1.0257 -47.6624 -0.0254)" id="484787">
<circle style="stroke: none; stroke-width: 0; stroke-dasharray: none; stroke-linecap: butt; stroke-dashoffset: 0; stroke-linejoin: miter; stroke-miterlimit: 4; is-custom-font: none; font-file-url: none; fill: rgb(41,41,41); fill-rule: nonzero; opacity: 1;" cx="0" cy="0" r="18.83509"/>
</g>
		<g transform="matrix(1.0257 0 0 1.0257 -47.6628 -0.0259)" id="705289">
<circle style="stroke: none; stroke-width: 0; stroke-dasharray: none; stroke-linecap: butt; stroke-dashoffset: 0; stroke-linejoin: miter; stroke-miterlimit: 4; is-custom-font: none; font-file-url: none; fill: rgb(204,204,204); fill-rule: nonzero; opacity: 1;" cx="0" cy="0" r="9.91321"/>
</g>
</g>
</g>
<g transform="matrix(1.0257 0 0 1.0257 333.5815 236.1757)" id="670656">
<path style="stroke: none; stroke-width: 0; stroke-dasharray: none; stroke-linecap: butt; stroke-dashoffset: 0; stroke-linejoin: miter; stroke-miterlimit: 4; is-custom-font: none; font-file-url: none; fill: none; fill-rule: nonzero; opacity: 1;" transform=" translate(-732.277, -296.0277)" d="M 732.01016 298.87947 a 28.99191 28.99191 0 0 0 -6.04507 -5.70351 h 12.62379 A 21.11412 21.11412 0 0 0 732.01016 298.87947 Z" stroke-linecap="round"/>
</g>
<g transform="matrix(1.0257 0 0 1.0257 292.098 233.769)" id="196810">
<path style="stroke: none; stroke-width: 0; stroke-dasharray: none; stroke-linecap: butt; stroke-dashoffset: 0; stroke-linejoin: miter; stroke-miterlimit: 4; is-custom-font: none; font-file-url: none; fill: none; fill-rule: nonzero; opacity: 1;" transform=" translate(-691.8313, -293.6812)" d="M 690.74325 293.176 h 2.17616 c -0.46752 0.32845 -0.93648 0.65539 -1.38307 1.01036 C 691.28145 293.84181 691.00932 293.51136 690.74325 293.176 Z" stroke-linecap="round"/>
</g>
<g transform="matrix(1.0257 0 0 1.0257 350.4313 231.9085)" id="618028">
<path style="stroke: none; stroke-width: 0; stroke-dasharray: none; stroke-linecap: butt; stroke-dashoffset: 0; stroke-linejoin: miter; stroke-miterlimit: 4; is-custom-font: none; font-file-url: none; fill: rgb(230,230,230); fill-rule: nonzero; opacity: 1;" transform=" translate(-748.7051, -291.8673)" d="M 748.69208 290.55856 a 20.83292 20.83292 0 0 1 10.12924 2.6174 H 738.58888 A 20.74188 20.74188 0 0 1 748.69208 290.55856 Z" stroke-linecap="round"/>
</g>
<g transform="matrix(1.0257 0 0 1.0257 310.1615 230.5663)" id="477425">
<path style="stroke: none; stroke-width: 0; stroke-dasharray: none; stroke-linecap: butt; stroke-dashoffset: 0; stroke-linejoin: miter; stroke-miterlimit: 4; is-custom-font: none; font-file-url: none; fill: rgb(230,230,230); fill-rule: nonzero; opacity: 1;" transform=" translate(-709.4423, -290.5586)" d="M 709.43111 287.94117 a 28.623 28.623 0 0 1 16.534 5.23479 H 692.91941 A 28.61637 28.61637 0 0 1 709.43111 287.94117 Z" stroke-linecap="round"/>
</g>
<g transform="matrix(1.0257 0 0 1.0257 186.4887 187.6124)" id="920514">
<path style="stroke: none; stroke-width: 0; stroke-dasharray: none; stroke-linecap: butt; stroke-dashoffset: 0; stroke-linejoin: miter; stroke-miterlimit: 4; is-custom-font: none; font-file-url: none; fill: rgb(230,230,230); fill-rule: nonzero; opacity: 1;" transform=" translate(-588.8593, -248.6772)" d="M 487.03606 254.80744 a 53.65615 53.65615 0 0 1 105.27431 -11.3126 c 0.65 -0.02332 1.29951 -0.04944 1.95522 -0.04944 a 53.66909 53.66909 0 0 1 51.48218 38.53833 A 37.92036 37.92036 0 0 1 690.74325 293.176 h -167.372 a 36.29323 36.29323 0 0 1 -36.37313 -37.57718 Q 487.01422 255.2037 487.03606 254.80744 Z" stroke-linecap="round"/>
</g>
<g transform="matrix(1.0257 0 0 1.0257 358.2235 287.5062)" id="907985">
<path style="stroke: none; stroke-width: 0; stroke-dasharray: none; stroke-linecap: butt; stroke-dashoffset: 0; stroke-linejoin: miter; stroke-miterlimit: 4; is-custom-font: none; font-file-url: none; fill: none; fill-rule: nonzero; opacity: 1;" transform=" translate(-777.3202, -335.2035)" d="M 777.58705 338.05522 a 28.99214 28.99214 0 0 1 6.04507 -5.70351 H 771.00833 A 21.11388 21.11388 0 0 1 777.58705 338.05522 Z" stroke-linecap="round"/>
</g>
<g transform="matrix(1.0257 0 0 1.0257 399.7066 285.0994)" id="992268">
<path style="stroke: none; stroke-width: 0; stroke-dasharray: none; stroke-linecap: butt; stroke-dashoffset: 0; stroke-linejoin: miter; stroke-miterlimit: 4; is-custom-font: none; font-file-url: none; fill: none; fill-rule: nonzero; opacity: 1;" transform=" translate(-817.7659, -332.8569)" d="M 818.854 332.35171 h -2.17616 c 0.46752 0.32845 0.93647 0.65539 1.38306 1.01036 C 818.31576 333.01756 818.5879 332.68711 818.854 332.35171 Z" stroke-linecap="round"/>
</g>
<g transform="matrix(1.0257 0 0 1.0257 341.3741 283.239)" id="648908">
<path style="stroke: none; stroke-width: 0; stroke-dasharray: none; stroke-linecap: butt; stroke-dashoffset: 0; stroke-linejoin: miter; stroke-miterlimit: 4; is-custom-font: none; font-file-url: none; fill: rgb(230,230,230); fill-rule: nonzero; opacity: 1;" transform=" translate(-760.8921, -331.043)" d="M 760.90514 329.73431 a 20.83286 20.83286 0 0 0 -10.12924 2.6174 h 20.23243 A 20.74171 20.74171 0 0 0 760.90514 329.73431 Z" stroke-linecap="round"/>
</g>
<g transform="matrix(1.0257 0 0 1.0257 381.6445 281.8968)" id="256207">
<path style="stroke: none; stroke-width: 0; stroke-dasharray: none; stroke-linecap: butt; stroke-dashoffset: 0; stroke-linejoin: miter; stroke-miterlimit: 4; is-custom-font: none; font-file-url: none; fill: rgb(230,230,230); fill-rule: nonzero; opacity: 1;" transform=" translate(-800.155, -329.7343)" d="M 800.16611 327.11691 a 28.62293 28.62293 0 0 0 -16.534 5.2348 h 33.04569 A 28.61635 28.61635 0 0 0 800.16611 327.11691 Z" stroke-linecap="round"/>
</g>
<g transform="matrix(1.0257 0 0 1.0257 464.0076 237.3216)" id="893299">
<path style="stroke: none; stroke-width: 0; stroke-dasharray: none; stroke-linecap: butt; stroke-dashoffset: 0; stroke-linejoin: miter; stroke-miterlimit: 4; is-custom-font: none; font-file-url: none; fill: rgb(230,230,230); fill-rule: nonzero; opacity: 1;" transform=" translate(-920.7379, -287.8529)" d="M 1022.56115 293.98318 a 53.65615 53.65615 0 0 0 -105.27431 -11.31259 c -0.65 -0.02333 -1.29951 -0.04945 -1.95522 -0.04945 a 53.66909 53.66909 0 0 0 -51.48218 38.53833 A 37.92038 37.92038 0 0 0 818.854 332.35171 H 986.226 a 36.29324 36.29324 0 0 0 36.37314 -37.57719 Q 1022.583 294.37945 1022.56115 293.98318 Z" stroke-linecap="round"/>
</g>
</svg>