<svg xmlns="http://www.w3.org/2000/svg" xmlns:xlink="http://www.w3.org/1999/xlink" version="1.1" width="430" height="140" viewBox="0 0 430 140" xml:space="preserve">
<desc>Created with Fabric.js 3.5.0</desc>
<defs>
</defs>
<rect x="0" y="0" width="100%" height="100%" fill="rgba(0,98,37,0)"/>
<g transform="matrix(4.493 0 0 4.493 114.7841 69.5001)" id="16170">
<path style="stroke: none; stroke-width: 0; stroke-dasharray: none; stroke-linecap: butt; stroke-dashoffset: 0; stroke-linejoin: miter; stroke-miterlimit: 4; is-custom-font: none; font-file-url: none; fill: rgb(255,255,255); fill-rule: nonzero; opacity: 1;" vector-effect="non-scaling-stroke" transform=" translate(-12, -12)" d="M 12 3 c 0 0 -6.186 5.34 -9.643 8.232 C 2.154 11.416 2 11.684 2 12 c 0 0.553 0.447 1 1 1 h 2 v 7 c 0 0.553 0.447 1 1 1 h 3 c 0.553 0 1 -0.448 1 -1 v -4 h 4 v 4 c 0 0.552 0.447 1 1 1 h 3 c 0.553 0 1 -0.447 1 -1 v -7 h 2 c 0.553 0 1 -0.447 1 -1 c 0 -0.316 -0.154 -0.584 -0.383 -0.768 C 18.184 8.34 12 3 12 3 z" stroke-linecap="round"/>
</g>
<g transform="matrix(1 0 0 1 520 708.6228)" id="968068">
<g style="">
		<g transform="matrix(3.5529 0 0 3.5529 0 0.0002)" id="174985">
<polygon style="stroke: none; stroke-width: 1; stroke-dasharray: none; stroke-linecap: butt; stroke-dashoffset: 0; stroke-linejoin: miter; stroke-miterlimit: 4; is-custom-font: none; font-file-url: none; fill: rgb(255,255,255); fill-rule: nonzero; opacity: 1;" points="5.3,-8.3 0.7,-15.5 0.7,-20 -0.7,-20 -0.7,-15.5 -5.3,-8.3 -5.3,8.3 -0.7,15.5 -0.7,20 0.7,20 0.7,15.5 5.3,8.3 "/>
</g>
		<g transform="matrix(3.5529 0 0 3.5529 46.3653 0.0002)" id="274103">
<polygon style="stroke: none; stroke-width: 1; stroke-dasharray: none; stroke-linecap: butt; stroke-dashoffset: 0; stroke-linejoin: miter; stroke-miterlimit: 4; is-custom-font: none; font-file-url: none; fill: rgb(255,255,255); fill-rule: nonzero; opacity: 1;" points="5.35,-8.3 0.65,-15.5 0.65,-20 -0.65,-20 -0.65,-15.5 -5.35,-8.3 -5.35,8.3 -0.65,15.5 -0.65,20 0.65,20 0.65,15.5 5.35,8.3 "/>
</g>
		<g transform="matrix(3.5529 0 0 3.5529 -46.3652 0.0002)" id="10656">
<polygon style="stroke: none; stroke-width: 1; stroke-dasharray: none; stroke-linecap: butt; stroke-dashoffset: 0; stroke-linejoin: miter; stroke-miterlimit: 4; is-custom-font: none; font-file-url: none; fill: rgb(255,255,255); fill-rule: nonzero; opacity: 1;" points="5.35,-8.3 0.65,-15.5 0.65,-20 -0.75,-20 -0.75,-15.4 -5.35,-8.3 -5.35,8.3 -0.75,15.4 -0.75,20 0.65,20 0.65,15.5 5.35,8.3 "/>
</g>
</g>
</g>
<g transform="matrix(1 0 0 1 540 728.6228)" id="494947">
<g style="">
		<g transform="matrix(3.5529 0 0 3.5529 0 0.0002)" id="965688">
<polygon style="stroke: none; stroke-width: 1; stroke-dasharray: none; stroke-linecap: butt; stroke-dashoffset: 0; stroke-linejoin: miter; stroke-miterlimit: 4; is-custom-font: none; font-file-url: none; fill: rgb(255,255,255); fill-rule: nonzero; opacity: 1;" points="5.3,-8.3 0.7,-15.5 0.7,-20 -0.7,-20 -0.7,-15.5 -5.3,-8.3 -5.3,8.3 -0.7,15.5 -0.7,20 0.7,20 0.7,15.5 5.3,8.3 "/>
</g>
		<g transform="matrix(3.5529 0 0 3.5529 46.3653 0.0002)" id="420038">
<polygon style="stroke: none; stroke-width: 1; stroke-dasharray: none; stroke-linecap: butt; stroke-dashoffset: 0; stroke-linejoin: miter; stroke-miterlimit: 4; is-custom-font: none; font-file-url: none; fill: rgb(255,255,255); fill-rule: nonzero; opacity: 1;" points="5.35,-8.3 0.65,-15.5 0.65,-20 -0.65,-20 -0.65,-15.5 -5.35,-8.3 -5.35,8.3 -0.65,15.5 -0.65,20 0.65,20 0.65,15.5 5.35,8.3 "/>
</g>
		<g transform="matrix(3.5529 0 0 3.5529 -46.3652 0.0002)" id="544757">
<polygon style="stroke: none; stroke-width: 1; stroke-dasharray: none; stroke-linecap: butt; stroke-dashoffset: 0; stroke-linejoin: miter; stroke-miterlimit: 4; is-custom-font: none; font-file-url: none; fill: rgb(255,255,255); fill-rule: nonzero; opacity: 1;" points="5.35,-8.3 0.65,-15.5 0.65,-20 -0.75,-20 -0.75,-15.4 -5.35,-8.3 -5.35,8.3 -0.75,15.4 -0.75,20 0.65,20 0.65,15.5 5.35,8.3 "/>
</g>
</g>
</g>
<g transform="matrix(1 0 0 1 560 748.6228)" id="308063">
<g style="">
		<g transform="matrix(3.5529 0 0 3.5529 0 0.0002)" id="160618">
<polygon style="stroke: none; stroke-width: 1; stroke-dasharray: none; stroke-linecap: butt; stroke-dashoffset: 0; stroke-linejoin: miter; stroke-miterlimit: 4; is-custom-font: none; font-file-url: none; fill: rgb(255,255,255); fill-rule: nonzero; opacity: 1;" points="5.3,-8.3 0.7,-15.5 0.7,-20 -0.7,-20 -0.7,-15.5 -5.3,-8.3 -5.3,8.3 -0.7,15.5 -0.7,20 0.7,20 0.7,15.5 5.3,8.3 "/>
</g>
		<g transform="matrix(3.5529 0 0 3.5529 46.3653 0.0002)" id="937551">
<polygon style="stroke: none; stroke-width: 1; stroke-dasharray: none; stroke-linecap: butt; stroke-dashoffset: 0; stroke-linejoin: miter; stroke-miterlimit: 4; is-custom-font: none; font-file-url: none; fill: rgb(255,255,255); fill-rule: nonzero; opacity: 1;" points="5.35,-8.3 0.65,-15.5 0.65,-20 -0.65,-20 -0.65,-15.5 -5.35,-8.3 -5.35,8.3 -0.65,15.5 -0.65,20 0.65,20 0.65,15.5 5.35,8.3 "/>
</g>
		<g transform="matrix(3.5529 0 0 3.5529 -46.3652 0.0002)" id="573903">
<polygon style="stroke: none; stroke-width: 1; stroke-dasharray: none; stroke-linecap: butt; stroke-dashoffset: 0; stroke-linejoin: miter; stroke-miterlimit: 4; is-custom-font: none; font-file-url: none; fill: rgb(255,255,255); fill-rule: nonzero; opacity: 1;" points="5.35,-8.3 0.65,-15.5 0.65,-20 -0.75,-20 -0.75,-15.4 -5.35,-8.3 -5.35,8.3 -0.75,15.4 -0.75,20 0.65,20 0.65,15.5 5.35,8.3 "/>
</g>
</g>
</g>
<g transform="matrix(1 0 0 1 580 768.6228)" id="556627">
<g style="">
		<g transform="matrix(3.5529 0 0 3.5529 0 0.0002)" id="178670">
<polygon style="stroke: none; stroke-width: 1; stroke-dasharray: none; stroke-linecap: butt; stroke-dashoffset: 0; stroke-linejoin: miter; stroke-miterlimit: 4; is-custom-font: none; font-file-url: none; fill: rgb(255,255,255); fill-rule: nonzero; opacity: 1;" points="5.3,-8.3 0.7,-15.5 0.7,-20 -0.7,-20 -0.7,-15.5 -5.3,-8.3 -5.3,8.3 -0.7,15.5 -0.7,20 0.7,20 0.7,15.5 5.3,8.3 "/>
</g>
		<g transform="matrix(3.5529 0 0 3.5529 46.3653 0.0002)" id="457738">
<polygon style="stroke: none; stroke-width: 1; stroke-dasharray: none; stroke-linecap: butt; stroke-dashoffset: 0; stroke-linejoin: miter; stroke-miterlimit: 4; is-custom-font: none; font-file-url: none; fill: rgb(255,255,255); fill-rule: nonzero; opacity: 1;" points="5.35,-8.3 0.65,-15.5 0.65,-20 -0.65,-20 -0.65,-15.5 -5.35,-8.3 -5.35,8.3 -0.65,15.5 -0.65,20 0.65,20 0.65,15.5 5.35,8.3 "/>
</g>
		<g transform="matrix(3.5529 0 0 3.5529 -46.3652 0.0002)" id="845403">
<polygon style="stroke: none; stroke-width: 1; stroke-dasharray: none; stroke-linecap: butt; stroke-dashoffset: 0; stroke-linejoin: miter; stroke-miterlimit: 4; is-custom-font: none; font-file-url: none; fill: rgb(255,255,255); fill-rule: nonzero; opacity: 1;" points="5.35,-8.3 0.65,-15.5 0.65,-20 -0.75,-20 -0.75,-15.4 -5.35,-8.3 -5.35,8.3 -0.75,15.4 -0.75,20 0.65,20 0.65,15.5 5.35,8.3 "/>
</g>
</g>
</g>
<g transform="matrix(1 0 0 1 600 788.6228)" id="693571">
<g style="">
		<g transform="matrix(3.5529 0 0 3.5529 0 0.0002)" id="425470">
<polygon style="stroke: none; stroke-width: 1; stroke-dasharray: none; stroke-linecap: butt; stroke-dashoffset: 0; stroke-linejoin: miter; stroke-miterlimit: 4; is-custom-font: none; font-file-url: none; fill: rgb(255,255,255); fill-rule: nonzero; opacity: 1;" points="5.3,-8.3 0.7,-15.5 0.7,-20 -0.7,-20 -0.7,-15.5 -5.3,-8.3 -5.3,8.3 -0.7,15.5 -0.7,20 0.7,20 0.7,15.5 5.3,8.3 "/>
</g>
		<g transform="matrix(3.5529 0 0 3.5529 46.3653 0.0002)" id="567553">
<polygon style="stroke: none; stroke-width: 1; stroke-dasharray: none; stroke-linecap: butt; stroke-dashoffset: 0; stroke-linejoin: miter; stroke-miterlimit: 4; is-custom-font: none; font-file-url: none; fill: rgb(255,255,255); fill-rule: nonzero; opacity: 1;" points="5.35,-8.3 0.65,-15.5 0.65,-20 -0.65,-20 -0.65,-15.5 -5.35,-8.3 -5.35,8.3 -0.65,15.5 -0.65,20 0.65,20 0.65,15.5 5.35,8.3 "/>
</g>
		<g transform="matrix(3.5529 0 0 3.5529 -46.3652 0.0002)" id="244951">
<polygon style="stroke: none; stroke-width: 1; stroke-dasharray: none; stroke-linecap: butt; stroke-dashoffset: 0; stroke-linejoin: miter; stroke-miterlimit: 4; is-custom-font: none; font-file-url: none; fill: rgb(255,255,255); fill-rule: nonzero; opacity: 1;" points="5.35,-8.3 0.65,-15.5 0.65,-20 -0.75,-20 -0.75,-15.4 -5.35,-8.3 -5.35,8.3 -0.75,15.4 -0.75,20 0.65,20 0.65,15.5 5.35,8.3 "/>
</g>
</g>
</g>
<g transform="matrix(1 0 0 1 620 808.6228)" id="175035">
<g style="">
		<g transform="matrix(3.5529 0 0 3.5529 0 0.0002)" id="71357">
<polygon style="stroke: none; stroke-width: 1; stroke-dasharray: none; stroke-linecap: butt; stroke-dashoffset: 0; stroke-linejoin: miter; stroke-miterlimit: 4; is-custom-font: none; font-file-url: none; fill: rgb(255,255,255); fill-rule: nonzero; opacity: 1;" points="5.3,-8.3 0.7,-15.5 0.7,-20 -0.7,-20 -0.7,-15.5 -5.3,-8.3 -5.3,8.3 -0.7,15.5 -0.7,20 0.7,20 0.7,15.5 5.3,8.3 "/>
</g>
		<g transform="matrix(3.5529 0 0 3.5529 46.3653 0.0002)" id="460814">
<polygon style="stroke: none; stroke-width: 1; stroke-dasharray: none; stroke-linecap: butt; stroke-dashoffset: 0; stroke-linejoin: miter; stroke-miterlimit: 4; is-custom-font: none; font-file-url: none; fill: rgb(255,255,255); fill-rule: nonzero; opacity: 1;" points="5.35,-8.3 0.65,-15.5 0.65,-20 -0.65,-20 -0.65,-15.5 -5.35,-8.3 -5.35,8.3 -0.65,15.5 -0.65,20 0.65,20 0.65,15.5 5.35,8.3 "/>
</g>
		<g transform="matrix(3.5529 0 0 3.5529 -46.3652 0.0002)" id="190414">
<polygon style="stroke: none; stroke-width: 1; stroke-dasharray: none; stroke-linecap: butt; stroke-dashoffset: 0; stroke-linejoin: miter; stroke-miterlimit: 4; is-custom-font: none; font-file-url: none; fill: rgb(255,255,255); fill-rule: nonzero; opacity: 1;" points="5.35,-8.3 0.65,-15.5 0.65,-20 -0.75,-20 -0.75,-15.4 -5.35,-8.3 -5.35,8.3 -0.75,15.4 -0.75,20 0.65,20 0.65,15.5 5.35,8.3 "/>
</g>
</g>
</g>
<g transform="matrix(1 0 0 1 257.1245 75.2131)" style="" id="162204">
		
<path xml:space="preserve" font-family="Open Sans" font-size="62" font-style="normal" font-weight="normal" style="stroke: none; stroke-width: 0; stroke-dasharray: none; stroke-linecap: butt; stroke-dashoffset: 0; stroke-linejoin: miter; stroke-miterlimit: 4; is-custom-font: none; font-file-url: none; fill: rgb(255,255,255); fill-rule: nonzero; opacity: 1; white-space: pre;" d="M-43.71-20.82L-43.71-20.82Q-51.01-20.82-55.23-15.96Q-59.46-11.10-59.46-2.65L-59.46-2.65Q-59.46 6.04-55.39 10.77Q-51.31 15.51-43.78 15.51L-43.78 15.51Q-39.14 15.51-33.21 13.85L-33.21 13.85L-33.21 18.36Q-37.81 20.08-44.56 20.08L-44.56 20.08Q-54.34 20.08-59.65 14.15Q-64.97 8.21-64.97-2.71L-64.97-2.71Q-64.97-9.56-62.41-14.70Q-59.85-19.85-55.02-22.63Q-50.19-25.42-43.65-25.42L-43.65-25.42Q-36.69-25.42-31.48-22.88L-31.48-22.88L-33.66-18.46Q-38.69-20.82-43.71-20.82ZM-0.18 19.48L-3.91 19.48L-4.90 14.75L-5.15 14.75Q-7.63 17.87-10.10 18.98Q-12.56 20.08-16.26 20.08L-16.26 20.08Q-21.19 20.08-23.99 17.54Q-26.79 15.00-26.79 10.30L-26.79 10.30Q-26.79 0.25-10.72-0.23L-10.72-0.23L-5.09-0.41L-5.09-2.47Q-5.09-6.38-6.77-8.24Q-8.45-10.10-12.14-10.10L-12.14-10.10Q-16.29-10.10-21.52-7.56L-21.52-7.56L-23.07-11.40Q-20.62-12.73-17.69-13.49Q-14.77-14.25-11.84-14.25L-11.84-14.25Q-5.90-14.25-3.04-11.61Q-0.18-8.98-0.18-3.17L-0.18-3.17L-0.18 19.48ZM-15.26 15.93L-15.26 15.93Q-10.57 15.93-7.89 13.36Q-5.21 10.79-5.21 6.16L-5.21 6.16L-5.21 3.16L-10.23 3.37Q-16.23 3.58-18.88 5.23Q-21.52 6.88-21.52 10.36L-21.52 10.36Q-21.52 13.09-19.87 14.51Q-18.22 15.93-15.26 15.93ZM31.58 10.42L31.58 10.42Q31.58 15.06 28.12 17.57Q24.67 20.08 18.44 20.08L18.44 20.08Q11.84 20.08 8.14 17.99L8.14 17.99L8.14 13.33Q10.54 14.54 13.27 15.24Q16.01 15.93 18.56 15.93L18.56 15.93Q22.49 15.93 24.61 14.68Q26.73 13.42 26.73 10.85L26.73 10.85Q26.73 8.91 25.05 7.53Q23.37 6.16 18.50 4.28L18.50 4.28Q13.87 2.55 11.91 1.27Q9.96-0.02 9.01-1.65Q8.05-3.29 8.05-5.56L8.05-5.56Q8.05-9.62 11.35-11.96Q14.65-14.31 20.40-14.31L20.40-14.31Q25.76-14.31 30.88-12.13L30.88-12.13L29.09-8.04Q24.10-10.10 20.04-10.10L20.04-10.10Q16.47-10.10 14.65-8.98Q12.84-7.86 12.84-5.89L12.84-5.89Q12.84-4.56 13.52-3.62Q14.20-2.68 15.71-1.84Q17.23-0.99 21.52 0.62L21.52 0.62Q27.43 2.77 29.50 4.95Q31.58 7.13 31.58 10.42ZM63.88 19.48L60.15 19.48L59.15 14.75L58.91 14.75Q56.43 17.87 53.96 18.98Q51.50 20.08 47.80 20.08L47.80 20.08Q42.87 20.08 40.07 17.54Q37.27 15.00 37.27 10.30L37.27 10.30Q37.27 0.25 53.34-0.23L53.34-0.23L58.97-0.41L58.97-2.47Q58.97-6.38 57.29-8.24Q55.61-10.10 51.92-10.10L51.92-10.10Q47.77-10.10 42.53-7.56L42.53-7.56L40.99-11.40Q43.44-12.73 46.36-13.49Q49.29-14.25 52.22-14.25L52.22-14.25Q58.16-14.25 61.02-11.61Q63.88-8.98 63.88-3.17L63.88-3.17L63.88 19.48ZM48.80 15.93L48.80 15.93Q53.49 15.93 56.17 13.36Q58.85 10.79 58.85 6.16L58.85 6.16L58.85 3.16L53.83 3.37Q47.83 3.58 45.18 5.23Q42.53 6.88 42.53 10.36L42.53 10.36Q42.53 13.09 44.18 14.51Q45.83 15.93 48.80 15.93Z"/></g>
</svg>