<svg xmlns="http://www.w3.org/2000/svg" xmlns:xlink="http://www.w3.org/1999/xlink" version="1.1" width="400" height="400" viewBox="0 0 400 400" xml:space="preserve">
<desc>Created with Fabric.js 3.5.0</desc>
<defs>
</defs>
<rect x="0" y="0" width="100%" height="100%" fill="rgba(255,255,255,0)"/>
<g transform="matrix(3.6852 0 0 3.6852 199.9993 199.9993)" id="797010">
<g style="" vector-effect="non-scaling-stroke">
		<g transform="matrix(1 0 0 1 0 0)" id="background">
<rect style="stroke: none; stroke-width: 1; stroke-dasharray: none; stroke-linecap: butt; stroke-dashoffset: 0; stroke-linejoin: miter; stroke-miterlimit: 4; is-custom-font: none; font-file-url: none; fill: none; fill-rule: nonzero; opacity: 1;" x="-16" y="-16" rx="0" ry="0" width="32" height="32"/>
</g>
		<g transform="matrix(1 0 0 1 0 2)" id="image_x5F_edit">
<path style="stroke: none; stroke-width: 1; stroke-dasharray: none; stroke-linecap: butt; stroke-dashoffset: 0; stroke-linejoin: miter; stroke-miterlimit: 4; is-custom-font: none; font-file-url: none; fill: rgb(0,0,0); fill-rule: nonzero; opacity: 1;" transform=" translate(-16, -18)" d="M 28 8 h -4 l -4 -4 h -8.001 L 8 8 H 4 c 0 0 -4 0 -4 4 v 12 c 0 4 4 4 4 4 s 5.662 0 11.518 0 c 1.614 2.411 4.361 3.999 7.482 4 c 3.875 -0.002 7.167 -2.454 8.436 -5.888 C 31.995 25.076 32 24 32 24 s 0 -8 0 -12 S 28 8 28 8 z M 14.033 23.66 C 11.686 22.847 10 20.626 10 18 c 0 -3.312 2.684 -6 6 -6 c 1.914 0 3.607 0.908 4.706 2.306 C 16.848 15.321 14 18.822 14 23 C 14 23.223 14.018 23.441 14.033 23.66 z M 23 29.883 c -3.801 -0.009 -6.876 -3.084 -6.884 -6.883 c 0.008 -3.801 3.083 -6.876 6.884 -6.885 c 3.799 0.009 6.874 3.084 6.883 6.885 C 29.874 26.799 26.799 29.874 23 29.883 z" stroke-linecap="round"/>
</g>
		<g transform="matrix(1 0 0 1 4.5 9.5)" id="image_x5F_edit">
<polygon style="stroke: none; stroke-width: 1; stroke-dasharray: none; stroke-linecap: butt; stroke-dashoffset: 0; stroke-linejoin: miter; stroke-miterlimit: 4; is-custom-font: none; font-file-url: none; fill: rgb(0,0,0); fill-rule: nonzero; opacity: 1;" points="-1.5,1.5 1.5,1.5 -1.5,-1.5 "/>
</g>
		<g transform="matrix(-0.7071 -0.7071 0.7071 -0.7071 7.9993 6.0003)" id="image_x5F_edit">
<rect style="stroke: none; stroke-width: 1; stroke-dasharray: none; stroke-linecap: butt; stroke-dashoffset: 0; stroke-linejoin: miter; stroke-miterlimit: 4; is-custom-font: none; font-file-url: none; fill: rgb(0,0,0); fill-rule: nonzero; opacity: 1;" x="-2.1215" y="-3.5355" rx="0" ry="0" width="4.243" height="7.071"/>
</g>
</g>
</g>
</svg>