<svg xmlns="http://www.w3.org/2000/svg" xmlns:xlink="http://www.w3.org/1999/xlink" version="1.1" width="1000" height="1000" viewBox="0 0 1000 1000" xml:space="preserve">
<desc>Created with Fabric.js 3.5.0</desc>
<defs>
</defs>
<rect x="0" y="0" width="100%" height="100%" fill="rgba(255,255,255,0)"/>
<g transform="matrix(1.1874 0 0 1.1874 900.0746 852.5961)" id="274975">
<path style="stroke: none; stroke-width: 1; stroke-dasharray: none; stroke-linecap: butt; stroke-dashoffset: 0; stroke-linejoin: miter; stroke-miterlimit: 4; is-custom-font: none; font-file-url: none; fill: rgb(241,241,241); fill-rule: nonzero; opacity: 1;" transform=" translate(-936.9269, -746.9429)" d="M 930.66209 783.11289 v -72.34 S 958.85375 762.05886 930.66209 783.11289 Z" stroke-linecap="round"/>
</g>
<g transform="matrix(1.1874 0 0 1.1874 863.1594 866.4851)" id="44126">
<path style="stroke: none; stroke-width: 1; stroke-dasharray: none; stroke-linecap: butt; stroke-dashoffset: 0; stroke-linejoin: miter; stroke-miterlimit: 4; is-custom-font: none; font-file-url: none; fill: rgb(241,241,241); fill-rule: nonzero; opacity: 1;" transform=" translate(-905.8388, -758.6395)" d="M 932.40355 783.10016 l -53.28962 -48.92124 S 935.95913 748.09445 932.40355 783.10016 Z" stroke-linecap="round"/>
</g>
<g transform="matrix(1.1874 0 0 1.1874 205.8823 425.2922)" id="706624">
<path style="stroke: none; stroke-width: 1; stroke-dasharray: none; stroke-linecap: butt; stroke-dashoffset: 0; stroke-linejoin: miter; stroke-miterlimit: 4; is-custom-font: none; font-file-url: none; fill: rgb(63,61,86); fill-rule: nonzero; opacity: 1;" transform=" translate(-352.3086, -387.0894)" d="M 487.41711 244.90908 h -2.9776 V 163.33871 A 47.21069 47.21069 0 0 0 437.22885 116.128 H 264.41091 a 47.21068 47.21068 0 0 0 -47.21079 47.2106 V 610.84006 a 47.21071 47.21071 0 0 0 47.21066 47.21075 H 437.22862 a 47.21071 47.21071 0 0 0 47.21084 -47.21057 v -307.868 h 2.97765 Z" stroke-linecap="round"/>
</g>
<g transform="matrix(1.1874 0 0 1.1874 205.8826 425.2925)" id="107127">
<path style="stroke: none; stroke-width: 1; stroke-dasharray: none; stroke-linecap: butt; stroke-dashoffset: 0; stroke-linejoin: miter; stroke-miterlimit: 4; is-custom-font: none; font-file-url: none; fill: rgb(255,255,255); fill-rule: nonzero; opacity: 1;" transform=" translate(-352.3086, -387.0894)" d="M 439.13364 128.41057 H 416.57519 a 16.75025 16.75025 0 0 1 -15.50845 23.07636 H 302.06159 a 16.75025 16.75025 0 0 1 -15.50845 -23.07639 H 265.4835 A 35.25642 35.25642 0 0 0 230.227 163.66692 V 610.51178 a 35.25643 35.25643 0 0 0 35.25641 35.25646 H 439.13364 a 35.25644 35.25644 0 0 0 35.25646 -35.25641 h 0 V 163.667 A 35.2564 35.2564 0 0 0 439.13364 128.41057 Z" stroke-linecap="round"/>
</g>
<g transform="matrix(1.1874 0 0 1.1874 205.8835 413.7455)" id="b5dcbba4-f290-467d-a612-e64d8f6895fb">
<circle style="stroke: none; stroke-width: 1; stroke-dasharray: none; stroke-linecap: butt; stroke-dashoffset: 0; stroke-linejoin: miter; stroke-miterlimit: 4; is-custom-font: none; font-file-url: none; fill: rgb(0,98,37); fill-rule: nonzero; opacity: 1;" cx="0" cy="0" r="84.4462"/>
</g>
<g transform="matrix(1.1874 0 0 1.1874 735.6001 851.1971)" id="198264">
<polygon style="stroke: none; stroke-width: 1; stroke-dasharray: none; stroke-linecap: butt; stroke-dashoffset: 0; stroke-linejoin: miter; stroke-miterlimit: 4; is-custom-font: none; font-file-url: none; fill: rgb(159,97,106); fill-rule: nonzero; opacity: 1;" points="9.045,23.6445 -3.215,23.6435 -9.047,-23.6445 9.047,-23.6435 9.045,23.6445 "/>
</g>
<g transform="matrix(1.1874 0 0 1.1874 726.5831 883.952)" id="386118">
<path style="stroke: none; stroke-width: 1; stroke-dasharray: none; stroke-linecap: butt; stroke-dashoffset: 0; stroke-linejoin: miter; stroke-miterlimit: 4; is-custom-font: none; font-file-url: none; fill: rgb(47,46,65); fill-rule: nonzero; opacity: 1;" transform=" translate(-790.8196, -773.3491)" d="M 810.58458 781.29294 l -39.53076 -0.00147 v -0.5 a 15.3873 15.3873 0 0 1 15.38647 -15.38623 h 0.001 l 24.144 0.001 Z" stroke-linecap="round"/>
</g>
<g transform="matrix(1.1874 0 0 1.1874 635.9681 848.8958)" id="340219">
<polygon style="stroke: none; stroke-width: 1; stroke-dasharray: none; stroke-linecap: butt; stroke-dashoffset: 0; stroke-linejoin: miter; stroke-miterlimit: 4; is-custom-font: none; font-file-url: none; fill: rgb(159,97,106); fill-rule: nonzero; opacity: 1;" points="-0.186,25.1785 -12.03,22.0115 -5.45,-25.1785 12.03,-20.5045 -0.186,25.1785 "/>
</g>
<g transform="matrix(1.1874 0 0 1.1874 615.452 880.2573)" id="76840">
<path style="stroke: none; stroke-width: 1; stroke-dasharray: none; stroke-linecap: butt; stroke-dashoffset: 0; stroke-linejoin: miter; stroke-miterlimit: 4; is-custom-font: none; font-file-url: none; fill: rgb(47,46,65); fill-rule: nonzero; opacity: 1;" transform=" translate(-697.2295, -770.2376)" d="M 714.27193 781.29294 l -38.189 -10.212 l 0.12914 -0.483 A 15.38731 15.38731 0 0 1 695.05064 759.708 l 0.00094 0.00026 l 23.3245 6.2372 Z" stroke-linecap="round"/>
</g>
<g transform="matrix(1.1874 0 0 1.1874 689.8498 718.5837)" id="523519">
<polygon style="stroke: none; stroke-width: 1; stroke-dasharray: none; stroke-linecap: butt; stroke-dashoffset: 0; stroke-linejoin: miter; stroke-miterlimit: 4; is-custom-font: none; font-file-url: none; fill: rgb(47,46,65); fill-rule: nonzero; opacity: 1;" points="54.626,-129.688 64.895,-117.758 51.614,124.685 23.246,124.685 8.943,-61.866 -35.403,129.688 -64.895,122.455 -38.079,-120.844 54.626,-129.688 "/>
</g>
<g transform="matrix(1.1874 0 0 1.1874 710.6173 473.8262)" id="845115">
<path style="stroke: none; stroke-width: 1; stroke-dasharray: none; stroke-linecap: butt; stroke-dashoffset: 0; stroke-linejoin: miter; stroke-miterlimit: 4; is-custom-font: none; font-file-url: none; fill: rgb(203,203,203); fill-rule: nonzero; opacity: 1;" transform=" translate(-777.3746, -427.9593)" d="M 728.66209 347.872 l 28.24578 -14.16734 l 43.437 0.76353 l 37.37966 19.12735 L 816.45736 459.809 l 9.18685 55.37972 l -0.00006 0 a 226.53237 226.53237 0 0 1 -108.3351 0.8917 l -0.28441 -0.06756 s 21.11382 -74.91647 12.12564 -97.77867 Z" stroke-linecap="round"/>
</g>
<g transform="matrix(1.1874 0 0 1.1874 711.8064 311.653)" id="726245">
<path style="stroke: none; stroke-width: 1; stroke-dasharray: none; stroke-linecap: butt; stroke-dashoffset: 0; stroke-linejoin: miter; stroke-miterlimit: 4; is-custom-font: none; font-file-url: none; fill: rgb(159,97,106); fill-rule: nonzero; opacity: 1;" transform=" translate(-778.3755, -291.3824)" d="M 810.37758 291.264 a 32.00239 32.00239 0 1 0 0 0.23684 Q 810.378 291.38244 810.37758 291.264 Z" stroke-linecap="round"/>
</g>
<g transform="matrix(1.1874 0 0 1.1874 720.716 298.2397)" id="14181">
<path style="stroke: none; stroke-width: 1; stroke-dasharray: none; stroke-linecap: butt; stroke-dashoffset: 0; stroke-linejoin: miter; stroke-miterlimit: 4; is-custom-font: none; font-file-url: none; fill: rgb(47,46,65); fill-rule: nonzero; opacity: 1;" transform=" translate(-785.8789, -280.0864)" d="M 764.04483 272.97783 a 9.07922 9.07922 0 0 1 6.11686 -2.46756 c 3.41906 -0.11108 8.54205 1.10309 10.72226 3.8826 c 1.75227 2.23392 1.83609 5.3074 1.84278 8.14658 l 0.0185 7.83578 c 0.00548 2.31821 0.03367 4.73535 1.0869 6.80054 s 3.47091 3.63379 5.67965 2.92978 c 2.62014 -0.83515 3.77228 -4.31754 6.45 -4.94373 c 2.011 -0.47027 4.07671 0.99927 4.95577 2.86811 a 12.43905 12.43905 0 0 1 0.71577 6.086 c -0.25348 4.103 -6.13809 5.73063 -6.97123 9.75611 c -0.482 2.3285 -2.16944 6.97348 0 6 c 10 -1 14.38929 -6.84091 18.96613 -12.33927 l 10.32256 -12.40088 a 12.12136 12.12136 0 0 0 2.65863 -4.30245 a 11.95064 11.95064 0 0 0 0.27283 -3.4307 q -0.08443 -4.6234 -0.251 -9.24429 c -0.097 -2.69165 -0.77448 -6.08762 -3.41048 -6.64078 c -1.371 -0.28769 -3.18544 0.214 -3.91012 -0.98483 a 2.72068 2.72068 0 0 1 -0.124 -1.911 c 0.58175 -3.07633 1.56389 -6.294 0.55141 -9.2566 c -1.527 -4.4681 -6.785 -6.30154 -11.431 -7.14453 s -9.86156 -1.56823 -12.77774 -5.28192 a 40.50078 40.50078 0 0 0 -2.53625 -3.565 a 9.95578 9.95578 0 0 0 -4.7546 -2.39807 a 26.27877 26.27877 0 0 0 -17.28013 1.53363 c -2.24741 1.02554 -4.50483 2.40658 -6.97022 2.25033 c -2.56085 -0.16232 -4.74826 -1.96456 -7.27649 -2.403 c -4.08371 -0.70822 -7.98776 2.35126 -10.00021 5.97455 c -2.49362 4.48959 -2.72247 10.63785 0.80026 14.37484 c 1.75745 1.86438 4.37952 3.145 5.10938 5.601 c 0.29708 0.99969 0.22812 2.07641 0.49087 3.08563 a 5.5701 5.5701 0 0 0 4.48868 3.88364 C 760.09766 275.67913 762.21039 274.53511 764.04483 272.97783 Z" stroke-linecap="round"/>
</g>
<g transform="matrix(1.1874 0 0 1.1874 692.7024 482.6602)" id="126776">
<path style="stroke: none; stroke-width: 1; stroke-dasharray: none; stroke-linecap: butt; stroke-dashoffset: 0; stroke-linejoin: miter; stroke-miterlimit: 4; is-custom-font: none; font-file-url: none; fill: rgb(159,97,106); fill-rule: nonzero; opacity: 1;" transform=" translate(-762.287, -435.3976)" d="M 724.76359 425.31265 a 11.46191 11.46191 0 0 0 16.65043 5.627 l 57.35319 30.3181 l 1.85723 -13.97143 L 744.8949 414.42367 a 11.52408 11.52408 0 0 0 -20.13131 10.889 Z" stroke-linecap="round"/>
</g>
<g transform="matrix(1.1874 0 0 1.1874 692.5467 474.0687)" id="618504">
<path style="stroke: none; stroke-width: 1; stroke-dasharray: none; stroke-linecap: butt; stroke-dashoffset: 0; stroke-linejoin: miter; stroke-miterlimit: 4; is-custom-font: none; font-file-url: none; fill: rgb(159,97,106); fill-rule: nonzero; opacity: 1;" transform=" translate(-762.1559, -428.162)" d="M 801.19249 427.72835 a 11.462 11.462 0 0 1 -17.47818 1.84754 L 721.1172 446.61047 l 0.54489 -17.73844 l 62.26939 -16.17355 a 11.52408 11.52408 0 0 1 17.261 15.02987 Z" stroke-linecap="round"/>
</g>
<g transform="matrix(1.1874 0 0 1.1874 748.5534 450.7664)" id="79010">
<path style="stroke: none; stroke-width: 1; stroke-dasharray: none; stroke-linecap: butt; stroke-dashoffset: 0; stroke-linejoin: miter; stroke-miterlimit: 4; is-custom-font: none; font-file-url: none; fill: rgb(203,203,203); fill-rule: nonzero; opacity: 1;" transform=" translate(-809.3224, -408.5386)" d="M 825.51941 354.36022 l 12.20514 -0.76465 s 14.28969 18.8552 6.36361 39.31583 c 0 0 1.37314 73.49863 -30.27647 70.47963 s -41.6496 -3.019 -41.6496 -3.019 l 9.5 -26.5 l 21.25276 -6.56178 s -6.55012 -28.89425 5.84856 -40.91623 Z" stroke-linecap="round"/>
</g>
<g transform="matrix(1.1874 0 0 1.1874 646.4777 438.3221)" id="289806">
<path style="stroke: none; stroke-width: 1; stroke-dasharray: none; stroke-linecap: butt; stroke-dashoffset: 0; stroke-linejoin: miter; stroke-miterlimit: 4; is-custom-font: none; font-file-url: none; fill: rgb(203,203,203); fill-rule: nonzero; opacity: 1;" transform=" translate(-723.3582, -398.0584)" d="M 737.38718 353.71455 l -1.72509 -8.84252 s -25.43966 -0.59763 -30.46983 37.95119 c 0 0 -22.87692 57.69232 -0.45355 65.12057 s 47.08873 0 47.08873 0 l -1.8579 -25.44183 l -24.67276 -5.03534 s 12.7455 -16.48928 5.8054 -30.79193 Z" stroke-linecap="round"/>
</g>
<g transform="matrix(1.1874 0 0 1.1874 727.1495 895.2599)" id="536117">
<path style="stroke: none; stroke-width: 1; stroke-dasharray: none; stroke-linecap: butt; stroke-dashoffset: 0; stroke-linejoin: miter; stroke-miterlimit: 4; is-custom-font: none; font-file-url: none; fill: rgb(203,203,203); fill-rule: nonzero; opacity: 1;" transform=" translate(-791.2999, -782.872)" d="M 981.79988 783.872 h -381 a 1 1 0 0 1 0 -2 h 381 a 1 1 0 0 1 0 2 Z" stroke-linecap="round"/>
</g>
<g transform="matrix(1 0 0 1 205.8855 415.677)" style="" id="709550">
		
<path xml:space="preserve" font-family="Lato" font-size="56" font-style="normal" font-weight="normal" style="stroke: none; stroke-width: 1; stroke-dasharray: none; stroke-linecap: butt; stroke-dashoffset: 0; stroke-linejoin: miter; stroke-miterlimit: 4; is-custom-font: none; font-file-url: none; fill: rgb(255,255,255); fill-rule: nonzero; opacity: 1; white-space: pre;" d="M-25.28-18.84L-26.60-16.26Q-26.85-15.84-27.13-15.63Q-27.41-15.42-27.86-15.42L-27.86-15.42Q-28.34-15.42-28.97-15.90Q-29.60-16.37-30.56-16.95Q-31.53-17.52-32.89-18.00Q-34.24-18.47-36.18-18.47L-36.18-18.47Q-38.00-18.47-39.40-17.98Q-40.80-17.49-41.73-16.65Q-42.67-15.81-43.15-14.68Q-43.62-13.54-43.62-12.23L-43.62-12.23Q-43.62-10.55-42.80-9.44Q-41.97-8.34-40.61-7.55Q-39.26-6.77-37.53-6.19Q-35.81-5.62-34.01-5.00Q-32.20-4.39-30.48-3.62Q-28.76-2.85-27.40-1.67Q-26.04-0.50-25.21 1.21Q-24.39 2.92-24.39 5.41L-24.39 5.41Q-24.39 8.04-25.28 10.35Q-26.18 12.66-27.90 14.37Q-29.62 16.08-32.13 17.06Q-34.64 18.04-37.83 18.04L-37.83 18.04Q-41.72 18.04-44.93 16.63Q-48.13 15.21-50.40 12.80L-50.40 12.80L-48.83 10.23Q-48.61 9.92-48.29 9.71Q-47.96 9.50-47.57 9.50L-47.57 9.50Q-46.98 9.50-46.23 10.13Q-45.47 10.76-44.34 11.52Q-43.20 12.27-41.59 12.90Q-39.98 13.53-37.66 13.53L-37.66 13.53Q-35.73 13.53-34.22 13.00Q-32.70 12.47-31.65 11.50Q-30.60 10.54-30.04 9.19Q-29.48 7.85-29.48 6.20L-29.48 6.20Q-29.48 4.38-30.31 3.21Q-31.14 2.05-32.48 1.27Q-33.82 0.48-35.55-0.06Q-37.27-0.61-39.07-1.18Q-40.88-1.76-42.60-2.51Q-44.32-3.27-45.67-4.47Q-47.01-5.68-47.84-7.48Q-48.66-9.29-48.66-11.95L-48.66-11.95Q-48.66-14.08-47.84-16.06Q-47.01-18.05-45.44-19.59Q-43.88-21.13-41.57-22.06Q-39.26-22.98-36.26-22.98L-36.26-22.98Q-32.90-22.98-30.13-21.92Q-27.36-20.85-25.28-18.84L-25.28-18.84ZM19.80-2.46L19.80-2.46Q19.80 2.05 18.37 5.82Q16.94 9.58 14.34 12.30Q11.73 15.02 8.08 16.51Q4.42 18.01 0 18.01L0 18.01Q-4.42 18.01-8.06 16.51Q-11.70 15.02-14.31 12.30Q-16.91 9.58-18.34 5.82Q-19.77 2.05-19.77-2.46L-19.77-2.46Q-19.77-6.96-18.34-10.73Q-16.91-14.50-14.31-17.23Q-11.70-19.96-8.06-21.47Q-4.42-22.98 0-22.98L0-22.98Q4.42-22.98 8.08-21.47Q11.73-19.96 14.34-17.23Q16.94-14.50 18.37-10.73Q19.80-6.96 19.80-2.46ZM14.22-2.46L14.22-2.46Q14.22-6.15 13.22-9.09Q12.21-12.03 10.36-14.06Q8.51-16.09 5.88-17.18Q3.25-18.28 0-18.28L0-18.28Q-3.22-18.28-5.85-17.18Q-8.48-16.09-10.35-14.06Q-12.21-12.03-13.22-9.09Q-14.22-6.15-14.22-2.46L-14.22-2.46Q-14.22 1.24-13.22 4.17Q-12.21 7.09-10.35 9.12Q-8.48 11.15-5.85 12.23Q-3.22 13.31 0 13.31L0 13.31Q3.25 13.31 5.88 12.23Q8.51 11.15 10.36 9.12Q12.21 7.09 13.22 4.17Q14.22 1.24 14.22-2.46ZM49.08-18.84L47.77-16.26Q47.52-15.84 47.24-15.63Q46.96-15.42 46.51-15.42L46.51-15.42Q46.03-15.42 45.40-15.90Q44.77-16.37 43.81-16.95Q42.84-17.52 41.48-18.00Q40.12-18.47 38.19-18.47L38.19-18.47Q36.37-18.47 34.97-17.98Q33.57-17.49 32.63-16.65Q31.70-15.81 31.22-14.68Q30.74-13.54 30.74-12.23L30.74-12.23Q30.74-10.55 31.57-9.44Q32.40-8.34 33.75-7.55Q35.11-6.77 36.83-6.19Q38.56-5.62 40.36-5.00Q42.17-4.39 43.89-3.62Q45.61-2.85 46.97-1.67Q48.33-0.50 49.15 1.21Q49.98 2.92 49.98 5.41L49.98 5.41Q49.98 8.04 49.08 10.35Q48.19 12.66 46.47 14.37Q44.74 16.08 42.24 17.06Q39.73 18.04 36.54 18.04L36.54 18.04Q32.65 18.04 29.44 16.63Q26.24 15.21 23.97 12.80L23.97 12.80L25.54 10.23Q25.76 9.92 26.08 9.71Q26.40 9.50 26.80 9.50L26.80 9.50Q27.38 9.50 28.14 10.13Q28.90 10.76 30.03 11.52Q31.16 12.27 32.77 12.90Q34.38 13.53 36.71 13.53L36.71 13.53Q38.64 13.53 40.15 13.00Q41.66 12.47 42.71 11.50Q43.76 10.54 44.32 9.19Q44.88 7.85 44.88 6.20L44.88 6.20Q44.88 4.38 44.06 3.21Q43.23 2.05 41.89 1.27Q40.54 0.48 38.82-0.06Q37.10-0.61 35.29-1.18Q33.49-1.76 31.77-2.51Q30.04-3.27 28.70-4.47Q27.36-5.68 26.53-7.48Q25.70-9.29 25.70-11.95L25.70-11.95Q25.70-14.08 26.53-16.06Q27.36-18.05 28.92-19.59Q30.49-21.13 32.80-22.06Q35.11-22.98 38.11-22.98L38.11-22.98Q41.47-22.98 44.24-21.92Q47.01-20.85 49.08-18.84L49.08-18.84Z"/></g>
</svg>