<svg xmlns="http://www.w3.org/2000/svg" xmlns:xlink="http://www.w3.org/1999/xlink" version="1.1" width="430" height="140" viewBox="0 0 430 140" xml:space="preserve">
<desc>Created with Fabric.js 3.5.0</desc>
<defs>
</defs>
<rect x="0" y="0" width="100%" height="100%" fill="rgba(110,110,110,0)"/>
<g transform="matrix(1 0 0 1 520 708.6228)" id="968068">
<g style="">
		<g transform="matrix(3.5529 0 0 3.5529 0 0.0002)" id="174985">
<polygon style="stroke: none; stroke-width: 1; stroke-dasharray: none; stroke-linecap: butt; stroke-dashoffset: 0; stroke-linejoin: miter; stroke-miterlimit: 4; is-custom-font: none; font-file-url: none; fill: rgb(255,255,255); fill-rule: nonzero; opacity: 1;" points="5.3,-8.3 0.7,-15.5 0.7,-20 -0.7,-20 -0.7,-15.5 -5.3,-8.3 -5.3,8.3 -0.7,15.5 -0.7,20 0.7,20 0.7,15.5 5.3,8.3 "/>
</g>
		<g transform="matrix(3.5529 0 0 3.5529 46.3653 0.0002)" id="274103">
<polygon style="stroke: none; stroke-width: 1; stroke-dasharray: none; stroke-linecap: butt; stroke-dashoffset: 0; stroke-linejoin: miter; stroke-miterlimit: 4; is-custom-font: none; font-file-url: none; fill: rgb(255,255,255); fill-rule: nonzero; opacity: 1;" points="5.35,-8.3 0.65,-15.5 0.65,-20 -0.65,-20 -0.65,-15.5 -5.35,-8.3 -5.35,8.3 -0.65,15.5 -0.65,20 0.65,20 0.65,15.5 5.35,8.3 "/>
</g>
		<g transform="matrix(3.5529 0 0 3.5529 -46.3652 0.0002)" id="10656">
<polygon style="stroke: none; stroke-width: 1; stroke-dasharray: none; stroke-linecap: butt; stroke-dashoffset: 0; stroke-linejoin: miter; stroke-miterlimit: 4; is-custom-font: none; font-file-url: none; fill: rgb(255,255,255); fill-rule: nonzero; opacity: 1;" points="5.35,-8.3 0.65,-15.5 0.65,-20 -0.75,-20 -0.75,-15.4 -5.35,-8.3 -5.35,8.3 -0.75,15.4 -0.75,20 0.65,20 0.65,15.5 5.35,8.3 "/>
</g>
</g>
</g>
<g transform="matrix(1 0 0 1 540 728.6228)" id="494947">
<g style="">
		<g transform="matrix(3.5529 0 0 3.5529 0 0.0002)" id="965688">
<polygon style="stroke: none; stroke-width: 1; stroke-dasharray: none; stroke-linecap: butt; stroke-dashoffset: 0; stroke-linejoin: miter; stroke-miterlimit: 4; is-custom-font: none; font-file-url: none; fill: rgb(255,255,255); fill-rule: nonzero; opacity: 1;" points="5.3,-8.3 0.7,-15.5 0.7,-20 -0.7,-20 -0.7,-15.5 -5.3,-8.3 -5.3,8.3 -0.7,15.5 -0.7,20 0.7,20 0.7,15.5 5.3,8.3 "/>
</g>
		<g transform="matrix(3.5529 0 0 3.5529 46.3653 0.0002)" id="420038">
<polygon style="stroke: none; stroke-width: 1; stroke-dasharray: none; stroke-linecap: butt; stroke-dashoffset: 0; stroke-linejoin: miter; stroke-miterlimit: 4; is-custom-font: none; font-file-url: none; fill: rgb(255,255,255); fill-rule: nonzero; opacity: 1;" points="5.35,-8.3 0.65,-15.5 0.65,-20 -0.65,-20 -0.65,-15.5 -5.35,-8.3 -5.35,8.3 -0.65,15.5 -0.65,20 0.65,20 0.65,15.5 5.35,8.3 "/>
</g>
		<g transform="matrix(3.5529 0 0 3.5529 -46.3652 0.0002)" id="544757">
<polygon style="stroke: none; stroke-width: 1; stroke-dasharray: none; stroke-linecap: butt; stroke-dashoffset: 0; stroke-linejoin: miter; stroke-miterlimit: 4; is-custom-font: none; font-file-url: none; fill: rgb(255,255,255); fill-rule: nonzero; opacity: 1;" points="5.35,-8.3 0.65,-15.5 0.65,-20 -0.75,-20 -0.75,-15.4 -5.35,-8.3 -5.35,8.3 -0.75,15.4 -0.75,20 0.65,20 0.65,15.5 5.35,8.3 "/>
</g>
</g>
</g>
<g transform="matrix(1 0 0 1 560 748.6228)" id="308063">
<g style="">
		<g transform="matrix(3.5529 0 0 3.5529 0 0.0002)" id="160618">
<polygon style="stroke: none; stroke-width: 1; stroke-dasharray: none; stroke-linecap: butt; stroke-dashoffset: 0; stroke-linejoin: miter; stroke-miterlimit: 4; is-custom-font: none; font-file-url: none; fill: rgb(255,255,255); fill-rule: nonzero; opacity: 1;" points="5.3,-8.3 0.7,-15.5 0.7,-20 -0.7,-20 -0.7,-15.5 -5.3,-8.3 -5.3,8.3 -0.7,15.5 -0.7,20 0.7,20 0.7,15.5 5.3,8.3 "/>
</g>
		<g transform="matrix(3.5529 0 0 3.5529 46.3653 0.0002)" id="937551">
<polygon style="stroke: none; stroke-width: 1; stroke-dasharray: none; stroke-linecap: butt; stroke-dashoffset: 0; stroke-linejoin: miter; stroke-miterlimit: 4; is-custom-font: none; font-file-url: none; fill: rgb(255,255,255); fill-rule: nonzero; opacity: 1;" points="5.35,-8.3 0.65,-15.5 0.65,-20 -0.65,-20 -0.65,-15.5 -5.35,-8.3 -5.35,8.3 -0.65,15.5 -0.65,20 0.65,20 0.65,15.5 5.35,8.3 "/>
</g>
		<g transform="matrix(3.5529 0 0 3.5529 -46.3652 0.0002)" id="573903">
<polygon style="stroke: none; stroke-width: 1; stroke-dasharray: none; stroke-linecap: butt; stroke-dashoffset: 0; stroke-linejoin: miter; stroke-miterlimit: 4; is-custom-font: none; font-file-url: none; fill: rgb(255,255,255); fill-rule: nonzero; opacity: 1;" points="5.35,-8.3 0.65,-15.5 0.65,-20 -0.75,-20 -0.75,-15.4 -5.35,-8.3 -5.35,8.3 -0.75,15.4 -0.75,20 0.65,20 0.65,15.5 5.35,8.3 "/>
</g>
</g>
</g>
<g transform="matrix(1 0 0 1 580 768.6228)" id="556627">
<g style="">
		<g transform="matrix(3.5529 0 0 3.5529 0 0.0002)" id="178670">
<polygon style="stroke: none; stroke-width: 1; stroke-dasharray: none; stroke-linecap: butt; stroke-dashoffset: 0; stroke-linejoin: miter; stroke-miterlimit: 4; is-custom-font: none; font-file-url: none; fill: rgb(255,255,255); fill-rule: nonzero; opacity: 1;" points="5.3,-8.3 0.7,-15.5 0.7,-20 -0.7,-20 -0.7,-15.5 -5.3,-8.3 -5.3,8.3 -0.7,15.5 -0.7,20 0.7,20 0.7,15.5 5.3,8.3 "/>
</g>
		<g transform="matrix(3.5529 0 0 3.5529 46.3653 0.0002)" id="457738">
<polygon style="stroke: none; stroke-width: 1; stroke-dasharray: none; stroke-linecap: butt; stroke-dashoffset: 0; stroke-linejoin: miter; stroke-miterlimit: 4; is-custom-font: none; font-file-url: none; fill: rgb(255,255,255); fill-rule: nonzero; opacity: 1;" points="5.35,-8.3 0.65,-15.5 0.65,-20 -0.65,-20 -0.65,-15.5 -5.35,-8.3 -5.35,8.3 -0.65,15.5 -0.65,20 0.65,20 0.65,15.5 5.35,8.3 "/>
</g>
		<g transform="matrix(3.5529 0 0 3.5529 -46.3652 0.0002)" id="845403">
<polygon style="stroke: none; stroke-width: 1; stroke-dasharray: none; stroke-linecap: butt; stroke-dashoffset: 0; stroke-linejoin: miter; stroke-miterlimit: 4; is-custom-font: none; font-file-url: none; fill: rgb(255,255,255); fill-rule: nonzero; opacity: 1;" points="5.35,-8.3 0.65,-15.5 0.65,-20 -0.75,-20 -0.75,-15.4 -5.35,-8.3 -5.35,8.3 -0.75,15.4 -0.75,20 0.65,20 0.65,15.5 5.35,8.3 "/>
</g>
</g>
</g>
<g transform="matrix(1 0 0 1 600 788.6228)" id="693571">
<g style="">
		<g transform="matrix(3.5529 0 0 3.5529 0 0.0002)" id="425470">
<polygon style="stroke: none; stroke-width: 1; stroke-dasharray: none; stroke-linecap: butt; stroke-dashoffset: 0; stroke-linejoin: miter; stroke-miterlimit: 4; is-custom-font: none; font-file-url: none; fill: rgb(255,255,255); fill-rule: nonzero; opacity: 1;" points="5.3,-8.3 0.7,-15.5 0.7,-20 -0.7,-20 -0.7,-15.5 -5.3,-8.3 -5.3,8.3 -0.7,15.5 -0.7,20 0.7,20 0.7,15.5 5.3,8.3 "/>
</g>
		<g transform="matrix(3.5529 0 0 3.5529 46.3653 0.0002)" id="567553">
<polygon style="stroke: none; stroke-width: 1; stroke-dasharray: none; stroke-linecap: butt; stroke-dashoffset: 0; stroke-linejoin: miter; stroke-miterlimit: 4; is-custom-font: none; font-file-url: none; fill: rgb(255,255,255); fill-rule: nonzero; opacity: 1;" points="5.35,-8.3 0.65,-15.5 0.65,-20 -0.65,-20 -0.65,-15.5 -5.35,-8.3 -5.35,8.3 -0.65,15.5 -0.65,20 0.65,20 0.65,15.5 5.35,8.3 "/>
</g>
		<g transform="matrix(3.5529 0 0 3.5529 -46.3652 0.0002)" id="244951">
<polygon style="stroke: none; stroke-width: 1; stroke-dasharray: none; stroke-linecap: butt; stroke-dashoffset: 0; stroke-linejoin: miter; stroke-miterlimit: 4; is-custom-font: none; font-file-url: none; fill: rgb(255,255,255); fill-rule: nonzero; opacity: 1;" points="5.35,-8.3 0.65,-15.5 0.65,-20 -0.75,-20 -0.75,-15.4 -5.35,-8.3 -5.35,8.3 -0.75,15.4 -0.75,20 0.65,20 0.65,15.5 5.35,8.3 "/>
</g>
</g>
</g>
<g transform="matrix(1 0 0 1 620 808.6228)" id="175035">
<g style="">
		<g transform="matrix(3.5529 0 0 3.5529 0 0.0002)" id="71357">
<polygon style="stroke: none; stroke-width: 1; stroke-dasharray: none; stroke-linecap: butt; stroke-dashoffset: 0; stroke-linejoin: miter; stroke-miterlimit: 4; is-custom-font: none; font-file-url: none; fill: rgb(255,255,255); fill-rule: nonzero; opacity: 1;" points="5.3,-8.3 0.7,-15.5 0.7,-20 -0.7,-20 -0.7,-15.5 -5.3,-8.3 -5.3,8.3 -0.7,15.5 -0.7,20 0.7,20 0.7,15.5 5.3,8.3 "/>
</g>
		<g transform="matrix(3.5529 0 0 3.5529 46.3653 0.0002)" id="460814">
<polygon style="stroke: none; stroke-width: 1; stroke-dasharray: none; stroke-linecap: butt; stroke-dashoffset: 0; stroke-linejoin: miter; stroke-miterlimit: 4; is-custom-font: none; font-file-url: none; fill: rgb(255,255,255); fill-rule: nonzero; opacity: 1;" points="5.35,-8.3 0.65,-15.5 0.65,-20 -0.65,-20 -0.65,-15.5 -5.35,-8.3 -5.35,8.3 -0.65,15.5 -0.65,20 0.65,20 0.65,15.5 5.35,8.3 "/>
</g>
		<g transform="matrix(3.5529 0 0 3.5529 -46.3652 0.0002)" id="190414">
<polygon style="stroke: none; stroke-width: 1; stroke-dasharray: none; stroke-linecap: butt; stroke-dashoffset: 0; stroke-linejoin: miter; stroke-miterlimit: 4; is-custom-font: none; font-file-url: none; fill: rgb(255,255,255); fill-rule: nonzero; opacity: 1;" points="5.35,-8.3 0.65,-15.5 0.65,-20 -0.75,-20 -0.75,-15.4 -5.35,-8.3 -5.35,8.3 -0.75,15.4 -0.75,20 0.65,20 0.65,15.5 5.35,8.3 "/>
</g>
</g>
</g>
<g transform="matrix(2.0188 0 0 2.0188 115.4175 70)" id="106274">
<g style="">
		<g transform="matrix(1 0 0 1 -13.05 0)" id="479124">
<polygon style="stroke: none; stroke-width: 1; stroke-dasharray: none; stroke-linecap: butt; stroke-dashoffset: 0; stroke-linejoin: miter; stroke-miterlimit: 4; is-custom-font: none; font-file-url: none; fill: rgb(255,255,255); fill-rule: nonzero; opacity: 1;" points="5.35,-8.3 0.65,-15.5 0.65,-20 -0.75,-20 -0.75,-15.4 -5.35,-8.3 -5.35,8.3 -0.75,15.4 -0.75,20 0.65,20 0.65,15.5 5.35,8.3 "/>
</g>
		<g transform="matrix(1 0 0 1 0 0)" id="597706">
<polygon style="stroke: none; stroke-width: 1; stroke-dasharray: none; stroke-linecap: butt; stroke-dashoffset: 0; stroke-linejoin: miter; stroke-miterlimit: 4; is-custom-font: none; font-file-url: none; fill: rgb(255,255,255); fill-rule: nonzero; opacity: 1;" points="5.3,-8.3 0.7,-15.5 0.7,-20 -0.7,-20 -0.7,-15.5 -5.3,-8.3 -5.3,8.3 -0.7,15.5 -0.7,20 0.7,20 0.7,15.5 5.3,8.3 "/>
</g>
		<g transform="matrix(1 0 0 1 13.05 0)" id="394850">
<polygon style="stroke: none; stroke-width: 1; stroke-dasharray: none; stroke-linecap: butt; stroke-dashoffset: 0; stroke-linejoin: miter; stroke-miterlimit: 4; is-custom-font: none; font-file-url: none; fill: rgb(255,255,255); fill-rule: nonzero; opacity: 1;" points="5.35,-8.3 0.65,-15.5 0.65,-20 -0.65,-20 -0.65,-15.5 -5.35,-8.3 -5.35,8.3 -0.65,15.5 -0.65,20 0.65,20 0.65,15.5 5.35,8.3 "/>
</g>
</g>
</g>
<g transform="matrix(1 0 0 1 257.1245 75.2131)" style="" id="162204">
		
<path xml:space="preserve" font-family="Open Sans" font-size="62" font-style="normal" font-weight="normal" style="stroke: none; stroke-width: 0; stroke-dasharray: none; stroke-linecap: butt; stroke-dashoffset: 0; stroke-linejoin: miter; stroke-miterlimit: 4; is-custom-font: none; font-file-url: none; fill: rgb(255,255,255); fill-rule: nonzero; opacity: 1; white-space: pre;" d="M-47.39-24.78L-42.25-24.78L-42.25 3.86Q-42.25 11.42-46.82 15.75Q-51.39 20.08-59.38 20.08L-59.38 20.08Q-67.37 20.08-71.75 15.72Q-76.12 11.36-76.12 3.73L-76.12 3.73L-76.12-24.78L-70.98-24.78L-70.98 4.10Q-70.98 9.64-67.95 12.60Q-64.92 15.57-59.05 15.57L-59.05 15.57Q-53.45 15.57-50.42 12.59Q-47.39 9.61-47.39 4.04L-47.39 4.04L-47.39-24.78ZM-11.58-20.82L-11.58-20.82Q-18.88-20.82-23.10-15.96Q-27.32-11.10-27.32-2.65L-27.32-2.65Q-27.32 6.04-23.25 10.77Q-19.18 15.51-11.64 15.51L-11.64 15.51Q-7.01 15.51-1.07 13.85L-1.07 13.85L-1.07 18.36Q-5.68 20.08-12.43 20.08L-12.43 20.08Q-22.21 20.08-27.52 14.15Q-32.83 8.21-32.83-2.71L-32.83-2.71Q-32.83-9.56-30.27-14.70Q-27.72-19.85-22.89-22.63Q-18.06-25.42-11.52-25.42L-11.52-25.42Q-4.56-25.42 0.65-22.88L0.65-22.88L-1.53-18.46Q-6.55-20.82-11.58-20.82ZM41.73 19.48L36.40 19.48L30.89 5.40L13.15 5.40L7.70 19.48L2.50 19.48L20.00-24.96L24.32-24.96L41.73 19.48ZM14.97 0.77L29.29 0.77L24.14-12.95Q23.14-15.55 22.08-19.33L22.08-19.33Q21.42-16.43 20.18-12.95L20.18-12.95L14.97 0.77ZM47.82 19.48L47.82-24.78L60.32-24.78Q69.13-24.78 73.06-22.15Q77.00-19.52 77.00-13.82L77.00-13.82Q77.00-9.89 74.81-7.33Q72.61-4.77 68.40-4.02L68.40-4.02L68.40-3.71Q78.48-1.99 78.48 6.88L78.48 6.88Q78.48 12.82 74.47 16.15Q70.46 19.48 63.26 19.48L63.26 19.48L47.82 19.48ZM52.96-20.33L52.96-5.83L61.44-5.83Q66.89-5.83 69.28-7.54Q71.67-9.25 71.67-13.31L71.67-13.31Q71.67-17.03 69.01-18.68Q66.34-20.33 60.53-20.33L60.53-20.33L52.96-20.33ZM61.77-1.47L52.96-1.47L52.96 15.09L62.20 15.09Q67.56 15.09 70.26 13.01Q72.97 10.94 72.97 6.52L72.97 6.52Q72.97 2.40 70.20 0.46Q67.43-1.47 61.77-1.47L61.77-1.47Z"/></g>
</svg>